<svg xmlns="http://www.w3.org/2000/svg" width="800" height="600"><path fill="none" stroke="blue" stroke-width="2.5" stroke-linejoin="round" d="M40,240.66271782985663L41.010719754977025,232.1641342604515L42.02143950995406,196.10953729933894L45.053598774885145,214.73774572924714L46.06431852986217,231.0052365009873L47.0750382848392,213.62177010902226L48.08575803981624,192.89037685638255L49.09647779479326,218.85827109623145L52.12863705972435,233.88101983002827L53.13935681470137,229.41711734912866L54.150076569678404,228.60159670357976L55.160796324655436,263.02515237359427L56.17151607963247,230.14679371619877L60.21439509954058,205.80994076744776L61.225114854517614,186.40913383123012L62.235834609494646,196.925057944888L63.24655436447168,199.37161988153488L66.27871362940276,183.61919478066778L67.28943338437978,191.25933556528457L68.30015313935681,201.77525967894243L69.31087289433384,181.387243540218L70.32159264931087,174.39093484419257L73.35375191424197,184.99270323632925L74.364471669219,154.81843935101722L75.375191424196,142.54270752854313L76.38591117917304,140.86874409820587L77.39663093415008,131.12541849085756L80.42879019908116,138.0788050476435L81.4395099540582,147.435831401837L82.45022970903523,147.86505279423127L83.46094946401226,152.37187741437032L84.47166921898928,136.01854236415144L87.50382848392036,138.93724783243186L88.51454823889739,138.50802644003778L89.52526799387442,142.9719289209374L90.53598774885145,110.69448021289384L91.54670750382849,112.28259936475231L94.57886676875958,105.3721349472057L95.58958652373661,106.57395484590951L96.60030627871363,106.23057773199422L97.61102603369066,104.55661430165678L101.65390505359876,89.06172203622623L102.66462480857581,89.40509915014152L103.67534456355284,75.11202678341488L104.68606431852986,76.74306807451279L105.69678407350689,71.03442355567L108.728943338438,99.6634904283629L109.739663093415,109.87895956734476L110.75038284839204,113.09812001030122L111.76110260336907,124.08618765559264L112.77182235834609,117.64786676967972L115.80398162327718,120.9099493518757L116.81470137825421,116.8323461241309L117.82542113323123,109.87895956734476L118.83614088820826,108.2049961370075L119.8468606431853,107.77577474461323L122.87901990811638,106.57395484590951L123.88973966309341,102.88265087131936L124.90045941807045,102.88265087131936L125.91117917304749,109.87895956734476L126.9218989280245,118.84968666838346L129.95405819295559,122.15469138981886L130.96477794793262,113.09812001030122L131.97549770290965,111.939222250837L132.98621745788668,113.09812001030122L133.9969372128637,119.23598592153826L137.02909647779478,113.52734140269547L138.03981623277184,124.08618765559264L139.05053598774884,147.0495321486822L140.06125574272588,154.38921795862308L141.0719754977029,145.03219160442956L144.104134762634,155.2476607434115L145.114854517611,130.2669757060692L146.12557427258807,136.01854236415144L147.1362940275651,146.19108936389384L148.14701378254213,164.604687097605L151.17917304747323,151.51343462958198L152.18989280245023,161.7718259078032L153.20061255742726,165.89235127478744L154.2113323124043,176.06489827453L155.22205206738133,167.8667696798009L158.25421133231242,170.78547514808133L159.26493108728943,156.02025924972088L160.27565084226646,146.19108936389384L161.2863705972435,149.1527169714139L162.29709035222052,145.03219160442956L166.33996937212865,140.48244484505105L167.35068912710568,145.33264657910547L168.36140888208269,147.86505279423127L169.37212863705975,152.37187741437032L172.4042879019908,145.03219160442956L173.41500765696784,144.21667095888054L174.42572741194488,137.22036226285513L175.43644716692188,140.0532234526568L176.4471669218989,148.2942741866254L179.47932618683,156.83577989526995L180.49004594180707,131.94093913640646L181.50076569678407,125.80307322516958L182.51148545176108,114.25701776976558L183.52220520673814,115.88805906086355L186.55436447166923,106.44518842819127L187.56508422664626,101.93836380805215L188.57580398162327,108.50545111168334L189.58652373660033,91.63705039059137L190.59724349157733,148.03674135118885L193.62940275650843,169.02566743926508L194.64012251148546,143.10069533865564L195.65084226646246,117.9912438835951L196.66156202143952,79.66177354279328L197.67228177641653,79.23255215039913L201.71516079632465,80.90651558073645L202.7258805513017,68.93123873293831L203.7366003062787,65.66915615074258L204.74732006125572,50.045497467593776L207.77947932618682,49.61627607519951L208.79019908116388,47.55601339170744L209.8009188361409,43.435488024723114L210.8116385911179,32.361576100952895L211.82235834609494,22.060262683492073L214.85451761102604,20.77259850630945L215.86523736600307,20L216.8759571209801,26.137865911236887L217.8866768759571,33.94969525281137L218.89739663093417,55.797064125676016L221.92955589586524,73.13760837840158L222.94027565084227,80.09099493518755L223.9509954058193,87.94574641600131L224.96171516079636,89.19048845394448L225.97243491577336,93.69731307408355L229.00459418070443,93.3110138209288L230.0153139356815,97.38861704867361L231.0260336906585,94.08361232723837L232.03675344563553,92.45257103614038L233.04747320061256,87.94574641600131L236.07963246554365,88.37496780839558L237.09035222052069,87.08730363121296L238.1010719754977,88.37496780839558L239.11179173047472,87.51652502360722L240.12251148545175,89.53386556785979L243.15467075038285,89.53386556785979L244.16539050535988,91.63705039059137L245.17611026033688,87.51652502360722L246.18683001531394,81.72203622628547L247.19754977029098,89.19048845394448L250.22970903522204,86.27178298566389L251.24042879019908,89.9201648210146L252.2511485451761,90.34938621340886L253.26186830015314,90.77860760580296L254.27258805513017,89.9201648210146L257.3047473200612,84.59781955532662L258.31546707503827,84.2115203021718L259.32618683001533,89.53386556785979L260.33690658499233,91.20782899819721L261.3476263399694,87.51652502360722L265.39050535987747,97.38861704867361L266.4012251148545,97.0023177955188L267.41194486983153,97.81783844106788L268.4226646248086,135.67516525023615L271.45482388973966,120.43780582024209L272.46554364471666,146.7919993132457L273.4762633996937,152.97278736372218L274.4869831546708,141.34088762983941L275.4977029096478,144.25959309812L278.52986217457885,154.60382865482018L279.54058192955586,144.68881449051412L280.5513016845329,137.17744012361564L281.5620214395099,129.27976650356254L282.572741194487,135.5463988325178L285.6049004594181,150.05408189544158L286.61562021439505,135.97562022491198L287.6263399693721,135.11717744012356L288.63705972434917,150.48330328783587L289.64777947932623,146.74907717400635L292.6799387442573,145.890634389218L293.69065849923425,151.72804532577905L294.70137825421136,151.72804532577905L295.71209800918837,161.29968237616959L296.7228177641654,169.15443385698336L299.7549770290965,178.3397716542193L300.7656967840735,175.764443299854L301.77641653905056,176.62288608464237L302.78713629402756,182.0310756288093L303.7978560490046,177.05210747703663L306.8300153139357,178.72607090737407L307.8407350689127,173.31788136320714L308.85145482388975,169.96995450253243L309.86217457886676,169.54073311013815L310.87289433384376,173.31788136320714L313.9050535987749,175.764443299854L314.91577335375194,187.01004378058198L315.92649310872895,177.91055026182505L316.93721286370595,187.86848656537035L317.947932618683,163.31702292042232L320.98009188361414,168.3389132114345L321.99081163859114,177.48132886943077L323.00153139356814,193.6629753626921L324.01225114854515,202.33324748905477L325.02297090352215,195.68031590694483L328.05513016845333,159.5827968065928L329.06584992343033,155.0330500472143L330.07656967840734,146.3198557816121L331.08728943338434,113.95656279508974L332.0980091883614,101.50914241565786L335.1301684532925,109.83603742810541L336.14088820826953,99.87810112455995L337.15160796324653,100.26440037771471L338.1623277182236,98.20413769422268L339.1730474732006,103.1831058459953L342.2052067381317,94.85621083354792L343.2159264931087,82.02249120096148L344.2266462480858,75.36955961885137L346.2480857580398,71.2490342518671L349.2802450229709,78.71748647952607L350.2909647779479,87.43068074512826L351.301684532925,99.44887973216585L352.312404287902,73.30929693535913L353.32312404287904,75.36955961885137L356.3552833078101,84.89827453000247L357.3660030627871,82.45171259335558L358.3767228177642,64.55318053051766L359.3874425727412,67.55773027727689L360.3981623277182,57.12765044209798L363.4303215926493,53.77972358142328L364.44104134762637,58.75869173319596L365.4517611026034,68.67370589750197L366.4624808575804,78.71748647952607L367.4732006125574,58.37239248004116L370.5053598774885,51.290239505536945L371.5160796324655,37.64099922740142L372.52679938744257,42.57704523993476L373.53751914241957,45.53867284745465L374.5482388973966,43.00626663232885L378.59111791730476,42.147823847540494L379.6018376722818,50.56056313846683L380.6125574272588,50.13134174607257L381.6232771822358,54.72401064469044L385.6661562021439,50.946862391621586L386.67687595712096,50.56056313846683L387.687595712098,58.07193750536514L388.698315467075,54.29478925229634L391.73047473200614,60.56142158125164L392.74119448698315,64.29564769508116L393.7519142419602,60.13220018885738L394.7626339969372,63.52304918877154L395.7733537519142,64.72486908747526L399.81623277182234,68.50201734054421L400.8269525267994,70.17598077088148L401.8376722817764,71.89286634045843L402.8483920367534,99.44887973216585L405.88055130168453,132.0697055541247L406.89127105666154,121.59670357970629L407.9019908116386,106.14473345351526L408.91271056661566,108.24791827624679L409.92343032159266,121.1674821873122L412.9555895865238,123.31358914928323L413.9663093415008,134.12996823761696L414.9770290964778,134.55918963001105L415.9877488514548,134.98841102240533L416.9984686064318,134.12996823761696L420.030627871363,135.84685380719367L421.04134762634,140.01030131341744L422.052067381317,145.4184908575842L423.06278713629405,138.7655592754743L424.07350689127105,133.3144475920679L427.1056661562022,119.92274014936902L428.1163859111792,109.92188170658423L429.1271056661561,106.96025409906431L430.1378254211332,102.79680659284055L431.1485451761102,106.14473345351526L435.1914241960184,99.87810112455995L436.2021439509954,107.81869688385268L437.21286370597244,110.73740235213312L438.22358346094944,103.61232723838958L441.2557427258806,114.12825135204733L442.2664624808576,119.57936303545372L443.27718223583463,103.61232723838958L444.28790199081163,103.61232723838958L445.29862174578864,106.53103270667006L448.33078101071976,111.59584513692165L449.34150076569676,117.51910035196148L450.35222052067377,120.00858442784784L451.36294027565083,125.93183964288782L452.3736600306279,99.79225684608116L455.405819295559,117.51910035196148L456.416539050536,130.9966520731393L457.427258805513,121.7254699974246L458.43797856049,122.15469138981886L459.448698315467,116.66065756717313L462.48085758039815,122.58391278221295L463.49157733537515,137.3062065413339L464.5022970903522,131.42587346553356L465.5130168453293,127.6487252124646L466.5237366003063,123.4423555670015L469.5558958652374,135.20302171860237L470.5666156202144,127.6487252124646L471.5773353751914,125.07339685809946L472.5880551301685,117.08987895956722L473.5987748851454,120.00858442784784L476.6309341500766,116.66065756717313L477.6416539050536,110.73740235213312L478.6523736600306,112.88350931410416L479.66309341500767,114.5574727444416L480.67381316998467,112.02506652931575L483.7059724349158,111.16662374452739L484.71669218989285,109.92188170658423L485.72741194486986,121.29624860503044L486.7381316998469,130.13820928835088L490.781010719755,126.79028242767619L491.791730474732,118.3775431367499L492.802450229709,111.59584513692165L493.81316998468606,100.22147823847541L494.82388973966306,130.56743068074505L497.85604900459424,130.56743068074505L498.86676875957124,134.77380032620826L499.87748851454825,142.8002403639796L500.8882082695253,150.3545368701176L501.8989280245023,154.17460726242592L504.9310872894334,156.27779208515744L505.9418070444104,154.17460726242592L506.9525267993874,144.08790454116232L507.9632465543645,145.28972443986598L508.9739663093415,144.47420379431708L512.0061255742726,150.7837582625117L513.0168453292496,156.7070134775517L514.0275650842267,166.4074169456605L515.0382848392037,159.2394196926775L516.0490045941807,184.47763756545618L519.0811638591117,188.2977079577646L520.0918836140888,194.22096317280443L521.1026033690658,220.7468452227659L522.1133231240428,217.8281397544853L523.1240428790198,193.79174178041035L526.156202143951,188.2977079577646L527.1669218989281,184.09133831230156L528.1776416539051,203.06292385612488L529.1883614088821,217.39891836209122L530.1990811638591,219.0728817924285L534.2419601837672,222.85003004549748L535.2526799387442,222.03450939994843L536.2633996937212,207.69851489398226L537.2741194486983,200.95973903339336L540.3062787136294,196.7104472486908L541.3169984686065,198.8565542106618L542.3277182235835,209.41540046355917L543.3384379785605,213.19254871662798L544.3491577335375,198.42733281826773L547.3813169984685,156.27779208515744L548.3920367534456,176.92334105931837L549.4027565084227,166.7937161988153L550.4134762633996,145.9764786676968L551.4241960183767,143.44407245257094L554.4563552833077,151.9426560219761L555.4670750382849,180.40003433771136L556.477794793262,195.2940166537901L557.4885145482389,205.08026440037767L558.499234303216,204.22182161558925L561.531393568147,202.50493604601252L562.542113323124,219.50210318482277L563.5528330781011,225.03905914670784L564.563552833078,227.57146536183365L565.5742725880551,228.0006867542279L568.6064318529862,209.32955618508026L570.6278713629404,213.57884796978274L571.6385911179173,257.7457292471456L572.6493108728944,264.5703493862135L575.6814701378254,269.2488625633101L576.6921898928024,254.7841016396257L577.7029096477795,246.28551807022063L578.7136294027564,237.3577131084214L579.7243491577335,237.78693450081548L582.7565084226646,236.0700489312387L583.7672281776416,233.10842132371883L584.7779479326188,231.0052365009873L585.7886676875956,241.60700489312399L586.7993874425728,274.7428963859559L589.8315467075039,295.17383466391965L590.8422664624808,294.7446132715255L591.8529862174579,288.34921452485196L592.8637059724349,279.85063095544683L593.8744257274119,290.9245428792171L596.906584992343,287.49077174006356L597.91730474732,294.7446132715255L598.9280245022971,291.3108421323719L599.938744257274,281.1382951326294L600.9494640122512,280.2798523478411L603.9816232771823,286.6752510945145L604.9923430321593,289.63687870203455L606.0030627871363,283.24147995536094L607.0137825421133,300.6678684865653L608.0245022970903,304.9171602712679L611.0566615620214,298.13546227143956L612.0673813169985,307.49248862563314L613.0781010719755,309.16645205597047L614.0888208269525,324.06043437204914L615.0995405819295,332.5590179414542L618.1316998468607,335.09142415657993L619.1424196018377,330.4129109794833L620.1531393568147,339.3407159412825L621.1638591117917,343.1607863335909L622.1745788667687,335.09142415657993L625.2067381316998,335.94986694136827L626.2174578866769,337.2375311185509L627.2281776416539,344.01922911837937L628.2388973966309,332.5590179414542L629.2496171516079,307.49248862563314L633.2924961715162,323.63121297965495L634.3032159264931,316.84951497982667L635.3139356814701,355.09314104214957L636.3246554364472,363.59172461155464L639.3568147013782,367.84101639625715L640.3675344563553,359.77165421924633L641.3782542113323,351.27307064984126L642.3889739663093,344.87767190316765L643.3996937212863,348.7406644347154L646.4318529862175,325.9919306378229L647.4425727411946,337.1516868400722L648.4532924961716,332.00103013134174L649.4640122511485,313.5445102583913L650.4747320061256,308.39385354966083L653.5068912710566,298.09254013220016L654.5176110260337,305.8185251952957L655.5283307810107,329.85492316937075L656.5390505359877,335.43480127049537L657.5497702909648,338.0101296248605L660.5819295558958,321.2704953214868L661.592649310873,311.39840329642027L662.60336906585,325.13348785303464L663.6140888208269,322.5581594986695L664.624808575804,328.9964803845824L667.656967840735,370.20173405442534L668.6676875957121,373.20628380118467L669.6784073506892,385.6537041806164L670.6891271056661,386.5121469654047L671.6998468606432,389.51669671216416L674.7320061255742,373.20628380118467L675.7427258805513,380.503047471886L676.7534456355285,383.50759721864534L677.7641653905054,363.76341316851244L678.7748851454824,353.03287835865746L681.8070444104135,417.8453086101811L682.8177641653905,436.30182848313166L683.8284839203676,453.04146278650535L684.8392036753445,460.7674478496009L685.8499234303216,483.51618164649335L688.8820826952527,499.8265945574728L689.8928024502297,510.5571293673277L690.9035222052069,516.5662288608465L691.9142419601837,520L692.9249617151607,511.4155721521161L695.9571209800919,511.8447935445103L696.9678407350689,508.4110224053567L697.978560490046,512.2740149369045L698.9892802450229,517.8538930380291L700,496.39282341831927"></path><path fill="none" stroke="red" stroke-width="2.5" stroke-linejoin="round" d="M40,228.69615942231297L41.010719754977025,240.355871189664L42.02143950995406,232.6113799777648L45.053598774885145,198.45529542495186L46.06431852986217,214.82541332516078L47.0750382848392,230.3128162258498L48.08575803981624,214.14854296933865L49.09647779479326,194.56740359952332L52.12863705972435,218.34637895206515L53.13935681470137,232.95008337658123L54.150076569678404,229.25182373123795L55.160796324655436,228.81569653913238L56.17151607963247,261.6602404694101L60.21439509954058,231.36406336090042L61.225114854517614,207.80184030220747L62.235834609494646,188.87796135980065L63.24655436447168,197.57308706491986L66.27871362940276,199.55935227603445L67.28943338437978,184.7686978804866L68.30015313935681,191.54047107795816L69.31087289433384,201.57378068221118L70.32159264931087,182.94896804927401L73.35375191424197,176.0726185010372L74.364471669219,185.59854355932896L75.375191424196,157.87105845674847L76.38591117917304,145.6217375347838L77.39663093415008,143.43514110969264L80.42879019908116,134.0566779446999L81.4395099540582,139.67295548190665L82.45022970903523,148.31658277319792L83.46094946401226,149.14779935888987L84.47166921898928,153.5887328888355L87.50382848392036,139.23343082499994L88.51454823889739,141.33437537431473L89.52526799387442,140.9231629240843L90.53598774885145,144.721409362479L91.54670750382849,115.95745907696529L94.57886676875958,116.00323544481238L95.58958652373661,109.64422441835774L96.60030627871363,109.91134263776746L97.61102603369066,109.52149845299684L101.65390505359876,108.0038449658585L102.66462480857581,94.41678717960232L103.67534456355284,93.98033216194582L104.68606431852986,81.43379267452615L105.69678407350689,81.84893903136846L108.728943338438,76.82921458999179L109.739663093415,101.15398968260607L110.75038284839204,111.66279534740602L111.76110260336907,115.4456339849043L112.77182235834609,126.04655862953189L115.80398162327718,121.20022410230517L116.81470137825421,124.02128217784973L117.82542113323123,120.55273883678073L118.83614088820826,114.0679918103607L119.8468606431853,112.13253955964929L122.87901990811638,111.44976834390933L123.88973966309341,110.17858006646846L124.90045941807045,106.79914567062258L125.91117917304749,106.60069200298344L126.9218989280245,112.72390705130911L129.95405819295559,120.98260754109468L130.96477794793262,124.47335361266246L131.97549770290965,116.85385334265823L132.98621745788668,115.62379227070494L133.9969372128637,116.53580295355407L137.02909647779478,121.85289497199983L138.03981623277184,117.003639817137L139.05053598774884,126.21070982360854L140.06125574272588,147.35378893226846L141.0719754977029,155.1190225608483L144.104134762634,147.47210415385234L145.114854517611,156.82970569287312L146.12557427258807,134.62897194975685L147.1362940275651,138.68780989886434L148.14701378254213,147.80583056475837L151.17917304747323,164.63120874832154L152.18989280245023,153.5689441464849L153.20061255742726,162.86074215672562L154.2113323124043,167.16112793226577L155.22205206738133,176.6549558888835L158.25421133231242,169.6278065871921L159.26493108728943,172.18785591950444L160.27565084226646,158.74530959658833L161.2863705972435,149.12795101189369L162.29709035222052,151.20100058705162L166.33996937212865,147.20060499298853L167.35068912710568,142.7639927998514L168.36140888208269,146.9562855505339L169.37212863705975,149.39095651075465L172.4042879019908,153.63462846597383L173.41500765696784,147.30553897162756L174.42572741194488,146.42449290218536L175.43644716692188,140.05815050431772L176.4471669218989,142.2112491185625L179.47932618683,149.64737569627303L180.49004594180707,157.68291639280403L181.50076569678407,135.65086379683265L182.51148545176108,129.37935239016906L183.52220520673814,118.63963832818212L186.55436447166923,119.11596885376795L187.56508422664626,110.48014977105478L188.57580398162327,105.89771481237352L189.58652373660033,111.39296511661993L190.59724349157733,96.76532942688169L193.62940275650843,146.0720208302275L194.64012251148546,167.75437297026312L195.65084226646246,145.87547451124865L196.66156202143952,123.4344446392581L197.67228177641653,88.62604684462431L201.71516079632465,85.61541619364007L202.7258805513017,85.9711069164623L203.7366003062787,74.91417693041012L204.74732006125572,71.35524314423678L207.77947932618682,57.89550088105531L208.79019908116388,56.52131577595852L209.8009188361409,54.60079448897846L210.8116385911179,50.82811844356081L211.82235834609494,41.312922221483234L214.85451761102604,32.065768090822715L215.86523736600307,30.17463189414036L216.8759571209801,29.18415169531378L217.8866768759571,33.98760068000671L218.89739663093417,40.85542676391783L221.92955589586524,59.79730630930622L222.94027565084227,76.25337410851967L223.9509954058193,83.82441580162323L224.96171516079636,91.72289561551835L225.97243491577336,93.7226314765463L229.00459418070443,97.94416030591233L230.0153139356815,97.90380796081797L231.0260336906585,101.42557825043838L232.03675344563553,98.69654974775302L233.04747320061256,97.06517059674462L236.07963246554365,92.99268318378688L237.09035222052069,93.0066604731881L238.1010719754977,91.76941704143586L239.11179173047472,92.7235980110712L240.12251148545175,92.01638889062124L243.15467075038285,93.7334497197289L244.16539050535988,93.86255338217262L245.17611026033688,95.72698669761085L246.18683001531394,92.2904808535702L247.19754977029098,87.08052818565191L250.22970903522204,93.22582675518507L251.24042879019908,90.94764779207696L252.2511485451761,93.95070865306559L253.26186830015314,94.58984926820128L254.27258805513017,95.02836064613221L257.3047473200612,94.36809018411917L258.31546707503827,89.72035833614565L259.32618683001533,89.08851929010018L260.33690658499233,93.59665705799834L261.3476263399694,95.23629145242717L265.39050535987747,92.16072154002451L266.4012251148545,100.69485509728574L267.41194486983153,100.88845098630566L268.4226646248086,101.67100037883729L271.45482388973966,135.39831891328046L272.46554364471666,123.66347549010757L273.4762633996937,147.20000894653217L274.4869831546708,154.34332770256464L275.4977029096478,144.31809452779507L278.52986217457885,146.8135026219171L279.54058192955586,156.18993922895822L280.5513016845329,147.36016662935128L281.5620214395099,140.21803996623154L282.572741194487,132.73771654378322L285.6049004594181,137.7581860432303L286.61562021439505,150.85246242170555L287.6263399693721,138.67022652840225L288.63705972434917,137.6212443698857L289.64777947932623,151.55317463578143L292.6799387442573,148.6388650921421L293.69065849923425,147.8845384993183L294.70137825421136,153.31622044899584L295.71209800918837,153.52257173218152L296.7228177641654,162.2887461748969L299.7549770290965,169.9189156764696L300.7656967840735,178.8085313402933L301.77641653905056,177.01490834386848L302.78713629402756,177.95064167568006L303.7978560490046,183.02702033273204L306.8300153139357,178.54525762052697L307.8407350689127,179.9206646208593L308.85145482388975,174.93112993249636L309.86217457886676,171.57777256911544L310.87289433384376,170.9659308816802L313.9050535987749,174.29246615452575L314.91577335375194,176.61418631126966L315.92649310872895,187.14829414814136L316.93721286370595,179.23699933543486L317.947932618683,188.35493059436038L320.98009188361414,166.08419119494675L321.99081163859114,169.83889643970565L323.00153139356814,178.21224646536862L324.01225114854515,193.24331619908207L325.02297090352215,202.01211324620522L328.05513016845333,196.51748879073793L329.06584992343033,163.31561500988315L330.07656967840734,157.89424466390017L331.08728943338434,149.25565396516498L332.0980091883614,119.14350620005096L335.1301684532925,106.45212742374015L336.14088820826953,112.7792201624577L337.15160796324653,103.78625004310425L338.1623277182236,103.56574265658051L339.1730474732006,101.90107431098531L342.2052067381317,106.20756956270297L343.2159264931087,99.23203788413085L344.2266462480858,87.75814359954451L346.2480857580398,81.35332640291996L349.2802450229709,77.19560434670528L350.2909647779479,83.08883486985138L351.301684532925,90.86950610165049L352.312404287902,101.89088191658189L353.32312404287904,80.13336831840166L356.3552833078101,80.88888700413813L357.3660030627871,89.16558809690521L358.3767228177642,87.18832318728141L359.3874425727412,71.69218820600702L360.3981623277182,73.37554260800847L363.4303215926493,64.43934591362165L364.44104134762637,60.7180192704179L365.4517611026034,64.59348352723175L366.4624808575804,73.16954895269666L367.4732006125574,82.40165291033449L370.5053598774885,65.8314720170544L371.5160796324655,59.010644196225854L372.52679938744257,47.078747814586194L373.53751914241957,49.937178002943426L374.5482388973966,52.342344663575275L378.59111791730476,50.20346175731426L379.6018376722818,49.42276010879729L380.6125574272588,56.53135915874783L381.6232771822358,56.72754784985288L385.6661562021439,60.69703843515465L386.67687595712096,57.95164845724275L387.687595712098,57.48649380271335L388.698315467075,63.835163423150476L391.73047473200614,61.03469875267251L392.74119448698315,66.1731556481525L393.7519142419602,69.80111161397028L394.7626339969372,66.52351175519043L395.7733537519142,69.28898849868108L399.81623277182234,70.53582827838044L400.8269525267994,73.80418941708692L401.8376722817764,75.49603748109134L402.8483920367534,77.13391353847392L405.88055130168453,101.1818846567629L406.89127105666154,131.60183081193196L407.9019908116386,124.37426088929558L408.91271056661566,111.17311338119816L409.92343032159266,112.66653757988618L412.9555895865238,123.8165104177734L413.9663093415008,125.92344523397446L414.9770290964778,135.75028434575052L415.9877488514548,136.81148545662205L416.9984686064318,137.42851274822746L420.030627871363,136.82260172303288L421.04134762634,138.321062514277L422.052067381317,142.0788672006089L423.06278713629405,147.098681048954L424.07350689127105,141.3580086163087L427.1056661562022,136.28520623799477L428.1163859111792,124.0251862821388L429.1271056661561,114.34580906366175L430.1378254211332,110.9521589598321L431.1485451761102,106.7666313364291L435.1914241960184,109.29115629994344L436.2021439509954,103.85810344341633L437.21286370597244,110.58296778477376L438.22358346094944,113.59490973796191L441.2557427258806,107.54104469483165L442.2664624808576,116.67462217323613L443.27718223583463,122.03635807126193L444.28790199081163,108.21803425994507L445.29862174578864,107.66156528830399L448.33078101071976,110.12749888515992L449.34150076569676,114.48158844641652L450.35222052067377,119.94849674166385L451.36294027565083,122.57238264945045L452.3736600306279,128.17092780458094L455.405819295559,105.42859644890943L456.416539050536,119.97314326263363L457.427258805513,132.5807477095055L458.43797856049,124.73162054219549L459.448698315467,125.07184385947559L462.48085758039815,120.33786408926936L463.49157733537515,125.25089621496076L464.5022970903522,138.58460445494867L465.5130168453293,133.9369918162664L466.5237366003063,130.58470733650694L469.5558958652374,126.81200148876651L470.5666156202144,137.0431687142023L471.5773353751914,130.61352618267108L472.5880551301685,128.0404830376105L473.5987748851454,120.85320585542279L476.6309341500766,122.96318050855119L477.6416539050536,119.93755928918995L478.6523736600306,114.43107350924151L479.66309341500767,116.04126320872697L480.67381316998467,117.53036607060656L483.7059724349158,115.31915292686848L484.71669218989285,114.5072184440392L485.72741194486986,113.39398247752901L486.7381316998469,123.40392706069335L490.781010719755,131.81694397802588L491.791730474732,129.3903196449657L492.802450229709,122.05459709282599L493.81316998468606,115.76448903672453L494.82388973966306,105.22725195595704L497.85604900459424,131.31745704761113L498.86676875957124,132.4237788752278L499.87748851454825,136.4641989888343L500.8882082695253,144.36181453536776L501.8989280245023,151.73496880496575L504.9310872894334,155.702432832316L505.9418070444104,157.9759924353875L506.9525267993874,156.27058431450135L507.9632465543645,147.05221922768212L508.9739663093415,147.6570573692553L512.0061255742726,146.72352940933223L513.0168453292496,152.21681276027275L514.0275650842267,157.81553672934015L515.0382848392037,167.00603664432555L516.0490045941807,161.03079012878678L519.0811638591117,184.20227493302465L520.0918836140888,188.7191447815083L521.1026033690658,194.6484659175859L522.1133231240428,219.97078435953435L523.1240428790198,218.23730245055447L526.156202143951,196.05972511226716L527.1669218989281,190.28725360117602L528.1776416539051,185.79991785460413L529.1883614088821,202.8349255768627L530.1990811638591,216.60395634624012L534.2419601837672,218.82223264048588L535.2526799387442,222.89552471615968L536.2633996937212,222.4969484508037L537.2741194486983,209.06799198709228L540.3062787136294,202.28134743053494L541.3169984686065,197.86666974699125L542.3277182235835,199.43430172949385L543.3384379785605,209.18776752249423L544.3491577335375,213.02714116637654L547.3813169984685,199.52364909329955L548.3920367534456,160.28358629111608L549.4027565084227,177.75224761268657L550.4134762633996,168.50741806320576L551.4241960183767,148.7696972893092L554.4563552833077,145.762821731L555.4670750382849,153.13305537296188L556.477794793262,179.258814635737L557.4885145482389,194.2256901661024L558.499234303216,204.56173176553153L561.531393568147,204.8494135876851L562.542113323124,203.63458150269133L563.5528330781011,219.5610918277676L564.563552833078,225.16005421541755L565.5742725880551,227.8013148774065L568.6064318529862,228.4234085638908L570.6278713629404,210.87416176142307L571.6385911179173,214.24277791408633L572.6493108728944,255.91938922282785L575.6814701378254,263.4347899792319L576.6921898928024,268.73465625508936L577.7029096477795,255.5194122482995L578.7136294027564,247.0796924497228L579.7243491577335,238.17437096177454L582.7565084226646,238.05435700779003L583.7672281776416,236.17365162409368L584.7779479326188,233.17985928550115L585.7886676875956,231.08272943350693L586.7993874425728,241.07568669266558L589.8315467075039,272.96506617665494L590.8422664624808,293.5898232868798L591.8529862174579,294.30406575551456L592.8637059724349,288.5641085786168L593.8744257274119,280.245654431583L596.906584992343,290.51133274684105L597.91730474732,287.32850427461955L598.9280245022971,294.1229272374321L599.938744257274,290.98384857510626L600.9494640122512,281.1056004564707L603.9816232771823,280.00553711664554L604.9923430321593,286.10026114435817L606.0030627871363,289.05137655667653L607.0137825421133,282.98144806154784L608.0245022970903,299.6371318189903L611.0566615620214,304.2184044870816L612.0673813169985,297.8646982740884L613.0781010719755,306.7514231125988L614.0888208269525,308.650248308568L615.0995405819295,323.06560205288L618.1316998468607,331.7144149483415L619.1424196018377,334.4363206958736L620.1531393568147,329.9906485966L621.1638591117917,338.44309398701955L622.1745788667687,342.4455757436799L625.2067381316998,334.7312444824717L626.2174578866769,335.2332646103259L627.2281776416539,336.55848449903414L628.2388973966309,343.1685800952229L629.2496171516079,332.2910898948526L633.2924961715162,307.63816142569914L634.3032159264931,322.51348422037034L635.3139356814701,316.57957352657894L636.3246554364472,353.29219073761175L639.3568147013782,362.6181422098007L640.3675344563553,366.9963716525392L641.3782542113323,359.2853782514864L642.3889739663093,350.71311262218074L643.3996937212863,344.29707485101545L646.4318529862175,347.9457732335139L647.4425727411946,326.1512153480721L648.4532924961716,336.1107642033527L649.4640122511485,331.62900149114773L650.4747320061256,313.5371437971489L653.5068912710566,307.95403624523766L654.5176110260337,297.9613174046615L655.5283307810107,305.12046119410985L656.5390505359877,328.5306924064356L657.5497702909648,334.5264429200725L660.5819295558958,337.23583169202135L661.592649310873,321.2047748185027L662.60336906585,311.1242285325846L663.6140888208269,324.19779229670195L664.624808575804,322.1230737914662L667.656967840735,328.1783693460917L668.6676875957121,368.2082086040897L669.6784073506892,372.4569618553492L670.6891271056661,384.45931092812856L671.6998468606432,385.6741132107995L674.7320061255742,388.46551797514104L675.7427258805513,372.8997796689273L676.7534456355285,379.1293443062258L677.7641653905054,382.6702476870948L678.7748851454824,363.8107119596501L681.8070444104135,352.4582323382207L682.8177641653905,414.8466086386515L683.8284839203676,435.24245410731805L684.8392036753445,451.42323040008915L685.8499234303216,458.9154374987608L688.8820826952527,480.08388583471884L689.8928024502297,496.7925804738722L690.9035222052069,507.73389979913605L691.9142419601837,513.9049624767447L692.9249617151607,517.5691357153659L695.9571209800919,510.56944925415047L696.9678407350689,510.1334375460458L697.978560490046,507.7343393833976L698.9892802450229,511.1749914756002L700,516.8634576892507"></path><g transform="translate(0,520)" fill="none" font-size="10" font-family="sans-serif" text-anchor="middle"><g class="tick" opacity="1" transform="translate(106.11255742725882,0)"><line stroke="currentColor" y2="6"></line><text fill="currentColor" y="9" dy="0.71em">April</text></g><g class="tick" opacity="1" transform="translate(198.08805513016847,0)"><line stroke="currentColor" y2="6"></line><text fill="currentColor" y="9" dy="0.71em">July</text></g><g class="tick" opacity="1" transform="translate(291.0742725880552,0)"><line stroke="currentColor" y2="6"></line><text fill="currentColor" y="9" dy="0.71em">October</text></g><g class="tick" opacity="1" transform="translate(384.1026033690659,0)"><line stroke="currentColor" y2="6"></line><text fill="currentColor" y="9" dy="0.71em">2017</text></g><g class="tick" opacity="1" transform="translate(475.0252679938744,0)"><line stroke="currentColor" y2="6"></line><text fill="currentColor" y="9" dy="0.71em">April</text></g><g class="tick" opacity="1" transform="translate(567.000765696784,0)"><line stroke="currentColor" y2="6"></line><text fill="currentColor" y="9" dy="0.71em">July</text></g><g class="tick" opacity="1" transform="translate(659.9869831546708,0)"><line stroke="currentColor" y2="6"></line><text fill="currentColor" y="9" dy="0.71em">October</text></g></g><g transform="translate(40,0)" fill="none" font-size="10" font-family="sans-serif" text-anchor="end"><g class="tick" opacity="1" transform="translate(0,517.9246716456348)"><line stroke="currentColor" x2="-6"></line><text fill="currentColor" x="-9" dy="0.32em">20</text></g><g class="tick" opacity="1" transform="translate(0,475.0025324062152)"><line stroke="currentColor" x2="-6"></line><text fill="currentColor" x="-9" dy="0.32em">21</text></g><g class="tick" opacity="1" transform="translate(0,432.08039316679543)"><line stroke="currentColor" x2="-6"></line><text fill="currentColor" x="-9" dy="0.32em">22</text></g><g class="tick" opacity="1" transform="translate(0,389.15825392737577)"><line stroke="currentColor" x2="-6"></line><text fill="currentColor" x="-9" dy="0.32em">23</text></g><g class="tick" opacity="1" transform="translate(0,346.23611468795605)"><line stroke="currentColor" x2="-6"></line><text fill="currentColor" x="-9" dy="0.32em">24</text></g><g class="tick" opacity="1" transform="translate(0,303.3139754485364)"><line stroke="currentColor" x2="-6"></line><text fill="currentColor" x="-9" dy="0.32em">25</text></g><g class="tick" opacity="1" transform="translate(0,260.3918362091166)"><line stroke="currentColor" x2="-6"></line><text fill="currentColor" x="-9" dy="0.32em">26</text></g><g class="tick" opacity="1" transform="translate(0,217.46969696969697)"><line stroke="currentColor" x2="-6"></line><text fill="currentColor" x="-9" dy="0.32em">27</text></g><g class="tick" opacity="1" transform="translate(0,174.54755773027722)"><line stroke="currentColor" x2="-6"></line><text fill="currentColor" x="-9" dy="0.32em">28</text></g><g class="tick" opacity="1" transform="translate(0,131.62541849085756)"><line stroke="currentColor" x2="-6"></line><text fill="currentColor" x="-9" dy="0.32em">29</text></g><g class="tick" opacity="1" transform="translate(0,88.70327925143786)"><line stroke="currentColor" x2="-6"></line><text fill="currentColor" x="-9" dy="0.32em">30</text></g><g class="tick" opacity="1" transform="translate(0,45.78114001201814)"><line stroke="currentColor" x2="-6"></line><text fill="currentColor" x="-9" dy="0.32em">31</text></g></g></svg>