<svg xmlns="http://www.w3.org/2000/svg" width="800" height="600"><path fill="none" stroke="blue" stroke-width="2.5" stroke-linejoin="round" d="M-8808.474576271188,261.4965986394559L-8797.288135593219,269.1307634164777L-8786.101694915254,267.08994708994703L-8774.915254237289,268.9795918367347L-8763.728813559323,277.1428571428572L-8730.169491525423,266.03174603174614L-8718.983050847457,274.572940287226L-8707.796610169493,269.9622071050644L-8696.610169491525,277.5207860922148L-8685.42372881356,273.061224489796L-8651.86440677966,269.0551776266063L-8640.677966101695,271.0959939531367L-8629.49152542373,285.3817082388512L-8618.305084745763,294.3764172335602L-8607.118644067796,320.8314436885866L-8573.5593220339,358.09523809523824L-8562.372881355932,375.55555555555566L-8551.186440677966,335.7974300831443L-8540,323.02343159486014L-8528.813559322034,326.95389266817847L-8495.254237288136,327.4829931972789L-8484.06779661017,363.8397581254725L-8472.881355932204,347.28647014361303L-8461.694915254237,335.1927437641724L-8450.50847457627,356.7346938775511L-8405.762711864407,331.94255479969763L-8394.57627118644,347.28647014361303L-8383.389830508475,339.19879062736214L-8372.203389830507,331.11111111111126L-8338.644067796611,343.05366591080883L-8327.457627118645,329.97732426303867L-8316.271186440677,323.85487528344675L-8305.084745762711,325.74452003023447L-8293.898305084746,350.9145880574452L-8260.338983050848,337.38473167044606L-8249.152542372882,351.51927437641734L-8237.966101694916,356.9614512471656L-8226.779661016948,351.67044595616034L-8215.593220338984,344.71655328798187L-8182.033898305085,364.8979591836736L-8170.847457627118,365.20030234315954L-8159.661016949152,347.8911564625851L-8148.474576271187,357.41496598639463L-8137.2881355932195,350.46107331821617L-8103.728813559323,319.62207105064255L-8092.542372881356,321.28495842781564L-8081.35593220339,312.1390778533636L-8070.169491525423,297.09750566893445L-8058.983050847457,296.3416477702192L-8025.423728813559,304.8828420256991L-8014.237288135593,315.4648526077097L-8003.050847457626,312.7437641723357L-7991.86440677966,312.1390778533636L-7980.677966101695,310.17384731670455L-7947.118644067797,318.26152683295544L-7935.93220338983,377.8987150415723L-7924.745762711864,375.85789871504164L-7913.559322033899,353.862433862434L-7902.372881355933,349.78080120937284L-7868.813559322034,356.9614512471656L-7857.627118644067,397.09750566893433L-7846.440677966101,376.4625850340137L-7835.254237288136,378.5789871504157L-7824.06779661017,381.6780045351475L-7790.508474576271,379.8639455782313L-7779.322033898305,369.2063492063493L-7768.13559322034,371.0959939531369L-7756.949152542374,382.96296296296305L-7745.762711864407,385.45729402872274L-7712.203389830508,406.01662887377177L-7701.016949152543,404.88284202569923L-7689.830508474577,408.1330309901739L-7678.64406779661,422.04081632653066L-7667.457627118644,431.0355253212397L-7633.8983050847455,417.2789115646259L-7622.71186440678,416.4474678760394L-7611.525423728814,402.53968253968264L-7600.338983050848,395.96371882086174L-7589.152542372881,383.64323507180654L-7555.593220338983,383.94557823129253L-7544.406779661017,382.88737717309164L-7533.220338983051,387.34693877551024L-7510.847457627119,383.94557823129253L-7477.28813559322,377.21844293272875L-7466.1016949152545,364.29327286470146L-7454.9152542372885,375.1776266061981L-7443.728813559323,380.61980347694634L-7432.542372881356,370.18896447467887L-7398.983050847458,376.2358276643992L-7387.796610169492,386.9690098261528L-7376.610169491525,396.8707482993198L-7365.423728813559,395.66137566137576L-7354.237288135593,411.23204837490556L-7320.677966101695,401.7838246409675L-7309.4915254237285,388.55631141345424L-7298.3050847457625,378.2010582010583L-7287.118644067797,395.8881330309903L-7275.932203389831,408.88888888888897L-7242.372881355932,404.6560846560848L-7231.186440677966,387.72486772486775L-7220,383.34089191232056L-7208.813559322034,385.45729402872274L-7164.067796610169,389.9168556311414L-7152.881355932203,374.64852607709764L-7141.6949152542375,377.82312925170066L-7130.5084745762715,389.8412698412699L-7085.762711864407,401.6326530612245L-7074.576271186441,402.3129251700681L-7063.389830508475,406.99924414210136L-7052.203389830508,423.17460317460325L-7041.016949152542,431.86696900982616L-7007.457627118644,420.6046863189721L-6996.271186440677,422.94784580498873L-6985.0847457627115,435.11715797430094L-6973.8983050847455,422.8722600151172L-6962.71186440678,443.0536659108089L-6917.966101694915,456.58352229780803L-6906.779661016949,500.347694633409L-6895.593220338983,492.94028722600154L-6884.406779661017,495.8881330309902L-6850.847457627119,498.7603930461074L-6839.661016949152,495.2078609221466L-6828.474576271186,506.6213151927438L-6817.28813559322,497.85336356764935L-6806.1016949152545,479.71277399848833L-6772.542372881356,479.48601662887376L-6761.35593220339,492.713529856387L-6750.169491525424,480.24187452758895L-6738.983050847458,459.6825396825398L-6727.796610169492,453.25774754346185L-6694.237288135593,455.374149659864L-6683.050847457627,476.00907029478464L-6671.864406779661,503.4467120181406L-6660.677966101695,520L-6649.4915254237285,497.39984882842026L-6604.745762711865,485.3817082388511L-6593.559322033899,461.57218442932736L-6582.372881355932,416.5986394557824L-6571.186440677966,412.13907785336363L-6537.627118644068,407.22600151171594L-6526.440677966101,416.9765684051399L-6515.254237288135,414.10430839002277L-6504.067796610169,402.1617535903251L-6492.881355932203,419.62207105064255L-6459.322033898305,426.6515495086924L-6448.135593220339,403.0687830687831L-6436.949152542373,389.3121693121694L-6425.762711864407,378.8057445200302L-6414.576271186441,378.8057445200302L-6381.016949152542,362.101284958428L-6369.830508474576,369.73544973544983L-6358.64406779661,360.1360544217687L-6347.457627118644,361.79894179894177L-6336.271186440677,346.4550264550264L-6302.71186440678,343.43159486016646L-6291.525423728814,342.2222222222224L-6280.338983050848,329.2970521541951L-6269.152542372881,313.34845049130763L-6257.966101694915,312.97052154195023L-6224.406779661017,302.010582010582L-6213.220338983051,305.86545729402894L-6202.033898305085,324.83749055177634L-6190.847457627119,306.84807256235837L-6146.1016949152545,303.67346938775506L-6134.9152542372885,297.09750566893445L-6123.728813559323,303.59788359788365L-6112.542372881356,282.055933484505L-6101.35593220339,274.4217687074831L-6067.796610169492,277.59637188208626L-6056.610169491525,292.26001511715805L-6045.423728813559,292.10884353741494L-6034.237288135593,304.7316704459563L-6023.050847457627,296.94633408919134L-5989.4915254237285,297.70219198790636L-5978.3050847457625,294.98110355253226L-5967.118644067797,283.64323507180666L-5955.932203389831,284.021164021164L-5944.745762711865,280.2418745275889L-5911.186440677966,274.34618291761154L-5900,334.8904006046865L-5888.813559322034,319.9244142101285L-5877.627118644068,297.32426303854874L-5866.440677966101,302.9176114890401L-5832.881355932203,300.72562358276656L-5821.6949152542375,298.83597883597895L-5810.5084745762715,289.08541194255497L-5799.322033898305,313.1216931216931L-5788.135593220339,321.0582010582011L-5754.576271186441,325.8201058201059L-5743.389830508475,333.90778533635677L-5732.203389830508,333.00075585789887L-5721.016949152542,317.2789115646259L-5709.830508474576,301.4814814814816L-5676.271186440677,301.1035525321239L-5665.0847457627115,282.2826908541195L-5653.8983050847455,289.6145124716555L-5642.71186440678,290.3703703703704L-5631.525423728814,298.3824640967499L-5597.966101694915,285.91080876795166L-5586.779661016949,296.4172335600909L-5575.593220338983,301.1035525321239L-5564.406779661017,318.3371126228269L-5553.220338983051,301.7082388510961L-5519.661016949152,305.18518518518533L-5508.474576271186,294.1496598639456L-5497.28813559322,269.9622071050644L-5486.1016949152545,264.671201814059L-5474.9152542372885,261.7233560090704L-5430.169491525424,255.2985638699926L-5418.983050847458,264.21768707482994L-5407.796610169492,257.0370370370371L-5396.610169491525,261.4210128495842L-5363.050847457627,262.5547996976569L-5351.864406779661,258.3219954648526L-5340.677966101695,253.48450491307642L-5329.4915254237285,257.64172335600904L-5318.3050847457625,265.124716553288L-5284.745762711865,273.061224489796L-5273.559322033899,274.4217687074831L-5262.372881355932,277.1428571428572L-5251.186440677966,274.4217687074831L-5240,267.77021919879064L-5206.440677966102,256.28117913832216L-5195.254237288135,253.1065759637188L-5184.06779661017,261.1942554799699L-5172.881355932203,243.88510959939535L-5161.6949152542375,306.5457294028724L-5128.135593220339,328.61678004535156L-5116.949152542373,312.8193499622072L-5105.762711864406,293.015873015873L-5094.576271186441,269.28193499622085L-5083.389830508474,265.2758881330311L-5038.644067796609,270.0377928949358L-5027.457627118644,265.124716553288L-5016.271186440677,263.5374149659864L-5005.0847457627115,250.23431594860173L-4971.525423728814,243.960695389267L-4960.338983050848,231.71579743008328L-4949.152542372882,224.68631897203332L-4937.966101694915,208.66213151927442L-4926.77966101695,212.13907785336366L-4893.22033898305,211.53439153439155L-4882.033898305085,213.57520786092226L-4870.847457627118,200.8767951625095L-4859.661016949152,207.37717309145896L-4848.474576271186,195.81254724111878L-4814.9152542372885,191.57974300831458L-4803.728813559323,195.51020408163265L-4792.542372881356,197.55102040816334L-4781.355932203391,200.80120937263803L-4770.169491525424,206.16780045351487L-4736.610169491526,200.1965230536659L-4725.423728813559,206.39455782312942L-4714.237288135594,205.86545729402874L-4703.050847457627,199.51625094482236L-4691.864406779661,185.60846560846576L-4658.3050847457625,186.0619803476946L-4647.118644067797,187.95162509448218L-4635.93220338983,185.75963718820864L-4624.745762711865,175.2532123960697L-4613.559322033898,186.66666666666674L-4580,187.19576719576725L-4568.813559322034,195.66137566137573L-4557.627118644068,197.55102040816334L-4546.440677966102,190.82388510959956L-4535.254237288135,200.42328042328043L-4501.6949152542375,200.72562358276662L-4490.5084745762715,198.835978835979L-4479.322033898306,207.60393046107347L-4468.135593220339,210.551776266062L-4456.949152542373,212.8193499622072L-4423.389830508474,202.7664399092971L-4412.203389830508,205.0340136054423L-4401.016949152542,208.8133030990175L-4389.830508474576,203.9758125472411L-4378.644067796609,203.90022675736967L-4333.898305084746,198.23129251700686L-4322.71186440678,188.93424036281198L-4311.525423728814,207.9818594104309L-4300.338983050848,231.79138321995472L-4266.77966101695,213.04610733182176L-4255.593220338983,230.9599395313683L-4244.406779661017,243.6583522297808L-4233.22033898305,231.94255479969783L-4222.033898305085,245.17006802721102L-4188.474576271186,237.68707482993204L-4177.28813559322,240.71050642479224L-4166.101694915254,232.9251700680273L-4154.9152542372885,228.7679516250945L-4143.728813559323,236.85563114134538L-4110.169491525424,244.11186696900987L-4098.983050847458,224.0060468631898L-4087.796610169492,213.04610733182176L-4076.6101694915255,214.33106575963723L-4065.423728813559,208.96447467876038L-4031.8644067796613,217.9591836734694L-4020.677966101695,226.27362055933497L-4009.4915254237285,221.73847316704456L-3998.305084745763,223.25018896447477L-3987.1186440677966,231.86696900982616L-3953.5593220338983,222.19198790627362L-3942.372881355932,238.29176114890421L-3931.1864406779664,241.9198790627363L-3920,246.00151171579745L-3908.8135593220336,240.71050642479224L-3875.2542372881353,238.44293272864707L-3864.06779661017,267.6190476190477L-3852.8813559322034,263.76417233560085L-3841.694915254237,261.7989417989418L-3830.5084745762715,275.4799697656841L-3796.9491525423728,268.6772486772487L-3785.762711864407,266.5608465608466L-3774.5762711864404,259.75812547241117L-3763.3898305084745,248.64701436130008L-3752.2033898305085,254.01360544217692L-3718.64406779661,246.15268329554056L-3707.4576271186443,252.72864701436143L-3696.271186440678,258.85109599395327L-3685.084745762712,255.67649281935L-3673.898305084746,255.2985638699926L-3640.3389830508477,231.56462585034018L-3629.1525423728813,225.3665910808769L-3617.9661016949153,228.01209372637953L-3606.7796610169494,188.70748299319743L-3595.593220338983,181.07331821617538L-3562.0338983050847,203.29554043839758L-3550.8474576271187,199.89417989417996L-3539.6610169491523,195.4346182917612L-3528.4745762711864,191.65532879818602L-3517.2881355932204,187.42252456538176L-3483.728813559322,170.11337868480734L-3472.5423728813557,170.86923658352237L-3461.35593220339,175.78231292517015L-3438.9830508474574,167.4678760393047L-3405.4237288135596,157.33938019652317L-3394.237288135593,164.52003023431598L-3383.0508474576272,174.11942554799705L-3371.8644067796613,191.5041572184429L-3360.677966101695,190.14361300075598L-3327.1186440677966,191.35298563870006L-3315.9322033898306,187.72486772486766L-3304.7457627118642,155.3741496598641L-3293.5593220338983,151.2925170068027L-3282.3728813559323,142.82690854119426L-3248.813559322034,150.23431594860182L-3237.6271186440677,129.97732426303864L-3226.4406779661017,128.31443688586555L-3215.2542372881358,131.94255479969766L-3204.0677966101694,141.2396069538928L-3170.508474576271,141.6175359032502L-3159.322033898305,134.89040060468642L-3148.1355932203387,136.93121693121688L-3136.9491525423728,138.89644746787616L-3125.762711864407,141.39077853363568L-3081.0169491525426,138.29176114890404L-3069.830508474576,145.2456538170825L-3058.64406779661,142.22222222222234L-3047.4576271186443,146.68178382464112L-3002.7118644067796,137.91383219954665L-2991.5254237288136,122.87226001511723L-2980.3389830508477,126.87830687830696L-2969.1525423728813,120.9070294784582L-2935.593220338983,134.5880574452005L-2924.406779661017,150.0831443688587L-2913.2203389830506,133.83219954648527L-2902.0338983050847,132.4716553287984L-2890.8474576271187,136.85563114134544L-2846.101694915254,132.8495842781557L-2834.915254237288,140.78609221466374L-2823.728813559322,140.71050642479213L-2812.5423728813557,113.49962207105067L-2778.9830508474574,110.02267573696166L-2767.7966101694915,74.57294028722598L-2756.6101694915255,57.18820861678019L-2745.4237288135596,54.46712018140591L-2734.237288135593,64.36885865457296L-2700.677966101695,75.32879818594122L-2689.491525423729,84.62585034013614L-2678.3050847457625,86.2887377173092L-2667.1186440677966,84.17233560090708L-2655.9322033898306,75.17762660619812L-2622.3728813559323,74.87528344671216L-2611.186440677966,55.90325018896445L-2600,62.403628117913925L-2588.813559322034,54.769463340892095L-2577.6271186440677,44.03628117913836L-2544.0677966101694,39.123204837490576L-2532.881355932203,33.454270597127724L-2521.694915254237,22.040816326530692L-2510.508474576271,23.93046107331829L-2499.3220338983047,29.448223733937997L-2454.576271186441,32.471655328798235L-2443.389830508475,25.971277399848987L-2432.2033898305085,22.26757369614522L-2421.0169491525426,24.459561602418784L-2387.4576271186443,38.82086167800462L-2376.271186440678,35.64625850340151L-2365.084745762712,20L-2353.898305084746,30.5064247921392L-2342.7118644067796,33.98337112622844L-2309.1525423728813,30.959939531368256L-2297.966101694915,31.64021164021178L-2286.779661016949,38.442932728647L-2275.593220338983,54.99622071050662L-2264.406779661017,50.23431594860165L-2230.8474576271187,60.36281179138324L-2219.661016949153,65.72940287226007L-2208.4745762711864,65.12471655328798L-2197.2881355932204,54.618291761149L-2186.101694915254,66.25850340136056L-2152.5423728813557,65.88057445200317L-2141.35593220339,79.2592592592593L-2130.169491525424,72.68329554043838L-2118.9830508474574,72.38095238095241L-2107.7966101694915,79.63718820861692L-2074.237288135593,80.09070294784591L-2063.050847457627,74.64852607709764L-2051.8644067796613,78.80574452003023L-2040.6779661016951,79.41043083900239L-2029.4915254237287,77.29402872260025L-1995.9322033898304,74.72411186696908L-1984.7457627118642,74.57294028722598L-1973.5593220338983,86.59108087679516L-1962.3728813559323,89.7656840513985L-1951.186440677966,92.03325774754349L-1917.6271186440677,98.9115646258503L-1906.4406779661017,103.44671201814074L-1895.2542372881358,102.91761148904003L-1884.0677966101694,111.15646258503402L-1839.322033898305,99.66742252456554L-1828.135593220339,107.37717309145881L-1816.949152542373,168.60166288737736L-1805.7627118644068,164.14210128495856L-1794.5762711864406,178.27664399092964L-1761.0169491525423,175.5555555555556L-1749.8305084745762,178.20105820105823L-1738.6440677966102,180.61980347694632L-1727.457627118644,178.6545729402873L-1716.2711864406779,178.8813303099018L-1682.7118644067798,189.53892668178386L-1671.5254237288136,187.64928193499625L-1660.3389830508474,191.05064247921408L-1649.1525423728813,188.02721088435385L-1637.9661016949153,217.35449735449745L-1604.406779661017,221.20937263794409L-1593.2203389830509,228.01209372637953L-1582.0338983050847,234.36130007558586L-1570.8474576271187,238.89644746787607L-1559.6610169491526,240.8616780045351L-1526.1016949152543,232.39606953892684L-1514.915254237288,216.37188208616791L-1503.7288135593221,236.78004535147394L-1492.542372881356,237.91383219954656L-1481.3559322033898,228.99470899470901L-1447.7966101694915,224.08163265306123L-1436.6101694915253,228.61678004535162L-1425.4237288135594,224.98866213151928L-1414.2372881355932,219.92441421012865L-1403.050847457627,225.13983371126238L-1358.3050847457628,230.88435374149662L-1347.1186440677966,224.15721844293284L-1335.9322033898306,223.93046107331836L-1324.7457627118645,228.46560846560854L-1291.1864406779662,225.7445200302343L-1280,226.0468631897205L-1268.8135593220338,236.40211640211655L-1257.6271186440679,228.08767951625094L-1246.4406779661015,213.27286470143628L-1212.8813559322034,205.26077097505686L-1201.6949152542375,212.13907785336366L-1190.5084745762713,215.46485260770984L-1179.322033898305,212.36583522297818L-1168.135593220339,203.74905517762664L-1134.5762711864406,207.83068783068796L-1123.3898305084745,206.99924414210133L-1112.2033898305085,215.61602418745295L-1101.0169491525426,211.00529100529107L-1089.8305084745764,213.19727891156464L-1056.2711864406779,204.8828420256992L-1045.084745762712,208.51095993953132L-1033.8983050847457,204.20256991685562L-1022.7118644067797,213.04610733182176L-1011.5254237288135,215.31368102796677L-977.9661016949152,202.31292517006804L-955.593220338983,216.44746787603933L-944.406779661017,226.12244897959192L-933.2203389830509,221.88964474678767L-899.6610169491526,218.2615268329555L-888.4745762711865,220.00000000000006L-877.2881355932203,216.29629629629625L-866.1016949152543,216.7498110355253L-854.9152542372881,212.21466364323507L-821.3559322033899,221.36054421768716L-810.1694915254236,214.02872260015124L-798.9830508474577,261.8745275888133L-787.7966101694915,260.9674981103554L-776.6101694915254,265.2758881330311L-743.0508474576271,273.363567649282L-731.8644067796611,271.851851851852L-720.6779661016949,277.9743008314438L-709.4915254237288,280.1662887377174L-698.3050847457627,285.91080876795166L-664.7457627118644,283.114134542706L-653.5593220338983,278.4278155706727L-642.3728813559322,284.7014361300076L-631.1864406779661,281.1489040060469L-620,279.4860166288738L-586.4406779661017,291.95767195767206L-575.2542372881356,290.9750566893425L-564.0677966101695,293.4693877551021L-552.8813559322034,292.94028722600166L-541.6949152542372,292.94028722600166L-508.13559322033893,289.38775510204096L-496.9491525423729,291.27739984882845L-485.76271186440675,288.0272108843538L-474.5762711864407,301.4814814814816L-463.3898305084746,308.9644746787605L-429.8305084745763,304.2781557067272L-418.6440677966102,299.2139077853363L-407.45762711864404,290.748299319728L-396.271186440678,284.7014361300076L-385.0847457627118,278.73015873015885L-351.52542372881356,287.9516250944823L-340.33898305084745,283.26530612244903L-329.1525423728813,287.5736961451247L-317.96610169491527,284.09674981103547L-306.77966101694915,276.2358276643991L-262.03389830508473,284.021164021164L-250.84745762711864,278.1254724111867L-239.66101694915255,285.0037792894936L-228.47457627118644,288.40513983371136L-194.91525423728814,270.3401360544218L-183.72881355932202,263.613000755858L-172.5423728813559,261.8745275888133L-161.35593220338984,265.2758881330311L-150.16949152542372,270.6424792139079L-116.61016949152541,272.68329554043845L-105.42372881355931,273.8926681783825L-94.23728813559323,262.70597127739995L-83.05084745762713,267.3922902494332L-71.86440677966101,268.3749055177628L-38.30508474576271,262.78155706727136L-27.118644067796616,257.64172335600904L-15.932203389830505,264.36885865457305L-4.745762711864408,264.36885865457305L6.4406779661016955,268.75283446712035L40,256.885865457294L51.186440677966104,255.97883597883595L62.3728813559322,258.2464096749812L73.5593220338983,256.432350718065L84.74576271186442,258.2464096749812L118.30508474576271,251.44368858654576L129.49152542372883,243.1292517006803L140.67796610169492,249.70521541950123L151.864406779661,254.16477702192003L163.05084745762713,253.6356764928195L196.61016949152543,255.60090702947855L207.79661016949152,257.79289493575214L218.98305084745763,160.5895691609979L230.16949152542372,150.30990173847323L241.35593220338984,141.54195011337876L274.91525423728814,160.4383975812548L286.10169491525426,187.87603930461077L297.2881355932204,205.71428571428586L308.47457627118644,204.95842781557064L319.66101694915255,204.35374149659873L353.22033898305085,199.28949357520784L364.40677966101697,201.48148148148164L375.59322033898303,201.70823885109616L386.77966101694915,206.84807256235825L397.96610169491527,220.0755857898715L431.52542372881356,225.59334845049145L442.7118644067797,221.81405895691623L453.89830508474574,220.1511715797431L465.08474576271186,218.41269841269838L476.271186440678,227.02947845805LNaN,226.75644971703437LNaN,226.63115082869987LNaN,226.50299645052206LNaN,226.37564283608822LNaN,226.24806594841834LNaN,226.1140988365135LNaN,225.97344387349165LNaN,225.82733533554054LNaN,225.67800542427656LNaN,225.52745874428842LNaN,225.37701710908215LNaN,225.22727577242222LNaN,225.07846233133608LNaN,224.93055052462833LNaN,224.76581005037508LNaN,224.60219021129038LNaN,224.4390594725395LNaN,224.27649672127296LNaN,224.1144861800607LNaN,223.9529884053275"></path><path fill="none" stroke="red" stroke-width="2.5" stroke-linejoin="round" d="M-8808.474576271188,1354.4671201814058L-8797.288135593219,1354.4671201814058L-8786.101694915254,1354.4671201814058L-8774.915254237289,1354.4671201814058L-8763.728813559323,1354.4671201814058L-8730.169491525423,1354.4671201814058L-8718.983050847457,1354.4671201814058L-8707.796610169493,1354.4671201814058L-8696.610169491525,1354.4671201814058L-8685.42372881356,1354.4671201814058L-8651.86440677966,1354.4671201814058L-8640.677966101695,1354.4671201814058L-8629.49152542373,1354.4671201814058L-8618.305084745763,1354.4671201814058L-8607.118644067796,1354.4671201814058L-8573.5593220339,1354.4671201814058L-8562.372881355932,1354.4671201814058L-8551.186440677966,1354.4671201814058L-8540,1354.4671201814058L-8528.813559322034,1354.4671201814058L-8495.254237288136,1354.4671201814058L-8484.06779661017,1354.4671201814058L-8472.881355932204,1354.4671201814058L-8461.694915254237,1354.4671201814058L-8450.50847457627,1354.4671201814058L-8405.762711864407,1354.4671201814058L-8394.57627118644,1354.4671201814058L-8383.389830508475,1354.4671201814058L-8372.203389830507,1354.4671201814058L-8338.644067796611,1354.4671201814058L-8327.457627118645,1354.4671201814058L-8316.271186440677,1354.4671201814058L-8305.084745762711,1354.4671201814058L-8293.898305084746,1354.4671201814058L-8260.338983050848,1354.4671201814058L-8249.152542372882,1354.4671201814058L-8237.966101694916,1354.4671201814058L-8226.779661016948,1354.4671201814058L-8215.593220338984,1354.4671201814058L-8182.033898305085,1354.4671201814058L-8170.847457627118,1354.4671201814058L-8159.661016949152,1354.4671201814058L-8148.474576271187,1354.4671201814058L-8137.2881355932195,1354.4671201814058L-8103.728813559323,1354.4671201814058L-8092.542372881356,1354.4671201814058L-8081.35593220339,1354.4671201814058L-8070.169491525423,1354.4671201814058L-8058.983050847457,1354.4671201814058L-8025.423728813559,1354.4671201814058L-8014.237288135593,1354.4671201814058L-8003.050847457626,1354.4671201814058L-7991.86440677966,1354.4671201814058L-7980.677966101695,1354.4671201814058L-7947.118644067797,1354.4671201814058L-7935.93220338983,1354.4671201814058L-7924.745762711864,1354.4671201814058L-7913.559322033899,1354.4671201814058L-7902.372881355933,1354.4671201814058L-7868.813559322034,348.89641763469166L-7857.627118644067,355.9490330822935L-7846.440677966101,395.10915149257903L-7835.254237288136,376.7549139895824L-7824.06779661017,377.42373772403465L-7790.508474576271,380.56764438987784L-7779.322033898305,379.1428251259783L-7768.13559322034,368.78544497373497L-7756.949152542374,370.156113416607L-7745.762711864407,381.87206226855375L-7712.203389830508,384.7973688946407L-7701.016949152543,404.4651139848513L-7689.830508474577,404.2436454714992L-7678.64406779661,406.9982443910116L-7667.457627118644,420.3433595856035L-7633.8983050847455,429.7262559273549L-7622.71186440678,417.03790197695076L-7611.525423728814,415.09157186155926L-7600.338983050848,402.12820952439847L-7589.152542372881,395.27533669662677L-7555.593220338983,383.4547444377823L-7544.406779661017,383.3427920111506L-7533.220338983051,382.53722031726795L-7510.847457627119,386.7348030165943L-7477.28813559322,383.5487707670845L-7466.1016949152545,376.76713294204313L-7454.9152542372885,363.9811912847295L-7443.728813559323,374.036882520483L-7432.542372881356,379.9517793835299L-7398.983050847458,369.9928264884783L-7387.796610169492,375.17774525012265L-7376.610169491525,385.8897432446371L-7365.423728813559,395.8603711997534L-7354.237288135593,394.978870637256L-7320.677966101695,409.61712353123994L-7309.4915254237285,401.39555666449996L-7298.3050847457625,388.01473828686403L-7287.118644067797,377.4597985349556L-7275.932203389831,394.39082609949884L-7242.372881355932,408.00840158222434L-7231.186440677966,404.3274794063095L-7220,387.4792203435267L-7208.813559322034,382.31990177740397L-7164.067796610169,384.5904215632069L-7152.881355932203,389.2263964349686L-7141.6949152542375,374.6770960247833L-7130.5084745762715,376.860101288876L-7085.762711864407,388.7765154669878L-7074.576271186441,400.6621065924591L-7063.389830508475,401.63829658594693L-7052.203389830508,405.8742125233287L-7041.016949152542,421.4845650419584L-7007.457627118644,430.635606760766L-6996.271186440677,420.23054289160245L-6985.0847457627115,421.43281330793843L-6973.8983050847455,433.41231155341944L-6962.71186440678,422.8219964440209L-6917.966101694915,440.8634064122785L-6906.779661016949,455.1504538299834L-6895.593220338983,496.4572820001465L-6884.406779661017,492.7579494391519L-6850.847457627119,493.61949362106014L-6839.661016949152,496.3236446581871L-6828.474576271186,493.89631994952435L-6817.28813559322,504.1320768212979L-6806.1016949152545,497.9232247445994L-6772.542372881356,480.39052553007286L-6761.35593220339,478.2332843742785L-6750.169491525424,491.1423357029253L-6738.983050847458,481.4841068741537L-6727.796610169492,460.75137949414324L-6694.237288135593,452.6319489138722L-6683.050847457627,454.8150957389996L-6671.864406779661,474.6947688738879L-6660.677966101695,501.50802325272576L-6649.4915254237285,518.1397349107541L-6604.745762711865,498.5268875622931L-6593.559322033899,484.18128416768116L-6582.372881355932,461.6812119740878L-6571.186440677966,418.38271690455514L-6537.627118644068,410.9977832029229L-6526.440677966101,407.9641227807155L-6515.254237288135,417.36944537058105L-6504.067796610169,414.72782705784635L-6492.881355932203,402.4714354286741L-6459.322033898305,418.1430689741271L-6448.135593220339,425.98780036674344L-6436.949152542373,403.6501545591999L-6425.762711864407,388.63122914199647L-6414.576271186441,378.2362086557092L-6381.016949152542,378.27456424550695L-6369.830508474576,362.3791674078251L-6358.64406779661,368.93956768751815L-6347.457627118644,360.07047084616295L-6336.271186440677,361.16049081263634L-6302.71186440678,346.37916441614965L-6291.525423728814,342.84240352753005L-6280.338983050848,341.6952525077216L-6269.152542372881,329.16930631691537L-6257.966101694915,313.26160111980346L-6224.406779661017,312.46245182654354L-6213.220338983051,301.91651237620374L-6202.033898305085,305.2608992693734L-6190.847457627119,323.6837715224121L-6146.1016949152545,306.76645302648353L-6134.9152542372885,303.1782831305593L-6123.728813559323,296.8413555704452L-6112.542372881356,302.938255220512L-6101.35593220339,282.3101898738511L-6067.796610169492,274.3380982535731L-6056.610169491525,277.2032935940175L-6045.423728813559,291.29150736274573L-6034.237288135593,291.44728410545946L-6023.050847457627,303.7090923068506L-5989.4915254237285,296.67219758467064L-5978.3050847457625,297.2643995464968L-5967.118644067797,294.697257239127L-5955.932203389831,283.6776694681541L-5944.745762711865,283.6898288159687L-5911.186440677966,280.01213274152667L-5900,274.1741258720137L-5888.813559322034,332.3937984643537L-5877.627118644068,319.47472982986335L-5866.440677966101,297.6308191087058L-5832.881355932203,302.372696535515L-5821.6949152542375,300.4811132876126L-5810.5084745762715,298.48432783925483L-5799.322033898305,288.96326047714626L-5788.135593220339,311.8634251327331L-5754.576271186441,320.1419740411927L-5743.389830508475,325.01438564307114L-5732.203389830508,333.04277385163806L-5721.016949152542,332.4686320975954L-5709.830508474576,317.2462015172733L-5676.271186440677,301.46003019366185L-5665.0847457627115,300.6817425265544L-5653.8983050847455,282.5290581345149L-5642.71186440678,288.99353963739054L-5631.525423728814,289.8515187164009L-5597.966101694915,297.51858356000486L-5586.779661016949,285.73879813203104L-5575.593220338983,295.5910587104737L-5564.406779661017,300.44022450035345L-5553.220338983051,317.21166062482916L-5519.661016949152,301.70899880063155L-5508.474576271186,304.61597699802724L-5497.28813559322,294.12019485742303L-5486.1016949152545,270.49693643706394L-5474.9152542372885,264.7154943767475L-5430.169491525424,261.6788462716519L-5418.983050847458,255.2480115915281L-5407.796610169492,263.52062983769576L-5396.610169491525,256.82962087712593L-5363.050847457627,260.90356863917503L-5351.864406779661,262.1729389859147L-5340.677966101695,258.2004383316134L-5329.4915254237285,253.52594395727698L-5318.3050847457625,257.36671834358623L-5284.745762711865,264.57232401669455L-5273.559322033899,272.36077372218347L-5262.372881355932,273.970814423995L-5251.186440677966,276.74776508581385L-5240,274.2827553396226L-5206.440677966102,267.8484039853759L-5195.254237288135,256.6418364394295L-5184.06779661017,253.21847339011074L-5172.881355932203,260.73035753746234L-5161.6949152542375,244.27741883969065L-5128.135593220339,303.91904967291504L-5116.949152542373,326.7325491729993L-5105.762711864406,312.8355471091212L-5094.576271186441,293.58801477427016L-5083.389830508474,270.1275664448706L-5038.644067796609,265.5084447868079L-5027.457627118644,269.784660915568L-5016.271186440677,264.90128205879796L-5005.0847457627115,263.1652073327016L-4971.525423728814,250.42283667172381L-4960.338983050848,244.11356566742347L-4949.152542372882,232.26174802457714L-4937.966101694915,225.15869214517036L-4926.77966101695,209.70705189807734L-4893.22033898305,212.3743896156258L-4882.033898305085,211.70231742795823L-4870.847457627118,213.50610303208134L-4859.661016949152,201.73412581275326L-4848.474576271186,207.54730734714477L-4814.9152542372885,196.8829930695506L-4803.728813559323,192.5595998633625L-4792.542372881356,196.03613025704723L-4781.355932203391,197.9150177153197L-4770.169491525424,201.0176779660268L-4736.610169491526,206.2459591077455L-4725.423728813559,200.95399040161524L-4714.237288135594,206.7005935462568L-4703.050847457627,206.4034643851976L-4691.864406779661,200.45927183856787L-4658.3050847457625,187.33808384898185L-4647.118644067797,187.2169672080045L-4635.93220338983,188.72615684852977L-4624.745762711865,186.5579484378438L-4613.559322033898,176.77643857438156L-4580,187.01747045733947L-4568.813559322034,187.78404581147834L-4557.627118644068,195.72141772537375L-4546.440677966102,197.93382298118016L-4535.254237288135,191.9187009056315L-4501.6949152542375,200.77797788153342L-4490.5084745762715,201.3126613598246L-4479.322033898306,199.57977548229726L-4468.135593220339,207.7887955710226L-4456.949152542373,210.80273430593502L-4423.389830508474,213.09551642707507L-4412.203389830508,203.85995532002636L-4401.016949152542,205.71747451265395L-4389.830508474576,209.20607484718417L-4378.644067796609,204.66974404262422L-4333.898305084746,204.47772767505103L-4322.71186440678,199.15908588976853L-4311.525423728814,190.26845686999152L-4300.338983050848,207.67122540649117L-4266.77966101695,230.48329439506793L-4255.593220338983,213.71552395633034L-4244.406779661017,230.56545939978605L-4233.22033898305,243.21633692892317L-4222.033898305085,232.53625722242225L-4188.474576271186,244.95962381720375L-4177.28813559322,238.18484052646969L-4166.101694915254,240.8189486537894L-4154.9152542372885,233.46814606265897L-4143.728813559323,229.23636519760387L-4110.169491525424,236.68205838540555L-4098.983050847458,243.66036174041975L-4087.796610169492,224.83590318394346L-4076.6101694915255,214.07505918190893L-4065.423728813559,214.88425185804522L-4031.8644067796613,209.57720317643896L-4020.677966101695,217.7292412234446L-4009.4915254237285,225.78334883682535L-3998.305084745763,221.85289926038305L-3987.1186440677966,223.39344094478344L-3953.5593220338983,231.674344236766L-3942.372881355932,222.78326818214293L-3931.1864406779664,237.81836135961464L-3920,241.68527238326075L-3908.8135593220336,245.75585248280237L-3875.2542372881353,241.00020638273244L-3864.06779661017,238.7691150703579L-3852.8813559322034,266.458751462705L-3841.694915254237,263.4558991919766L-3830.5084745762715,261.73278847641785L-3796.9491525423728,274.9144751818464L-3785.762711864407,268.7335925853538L-3774.5762711864404,266.55295660594555L-3763.3898305084745,259.96527229947725L-3752.2033898305085,249.08167252869617L-3718.64406779661,253.80027434118372L-3707.4576271186443,246.28746632181677L-3696.271186440678,252.2851242360434L-3685.084745762712,258.28138144108544L-3673.898305084746,255.4463162492701L-3640.3389830508477,255.12808704347367L-3629.1525423728813,232.59648771735712L-3617.9661016949153,226.05314926762463L-3606.7796610169494,228.211195086142L-3595.593220338983,191.04567165346825L-3562.0338983050847,182.7026901225201L-3550.8474576271187,202.91915558519025L-3539.6610169491523,199.8797358640486L-3528.4745762711864,195.78710204543137L-3517.2881355932204,192.457497104507L-3483.728813559322,188.47432721854483L-3472.5423728813557,172.28415560332667L-3461.35593220339,172.3085339036021L-3438.9830508474574,176.61026082091456L-3405.4237288135596,168.90892330577427L-3394.237288135593,159.40484326781856L-3383.0508474576272,165.6260186051087L-3371.8644067796613,174.53619794882297L-3360.677966101695,190.93626732545934L-3327.1186440677966,190.55864208977422L-3315.9322033898306,192.100137448513L-3304.7457627118642,189.0221535213121L-3293.5593220338983,159.09710447974462L-3282.3728813559323,154.09549980733547L-3248.813559322034,145.7528162996181L-3237.6271186440677,151.57854461202416L-3226.4406779661017,133.28602772011615L-3215.2542372881358,130.9879407854687L-3204.0677966101694,134.10636646508254L-3170.508474576271,142.42094638214007L-3159.322033898305,143.20924762980067L-3148.1355932203387,137.43367662713007L-3136.9491525423728,139.21615357025445L-3125.762711864407,141.05552314812923L-3081.0169491525426,143.32345013182464L-3069.830508474576,140.66460607635258L-3058.64406779661,146.88429129748903L-3047.4576271186443,144.4407392239118L-3002.7118644067796,148.40838209955186L-2991.5254237288136,140.71106789802673L-2980.3389830508477,126.86028923723816L-2969.1525423728813,129.7104046022065L-2935.593220338983,124.2099686461656L-2924.406779661017,135.97735630774008L-2913.2203389830506,150.52419802627176L-2902.0338983050847,136.68385017855942L-2890.8474576271187,135.24886832249126L-2846.101694915254,139.21359057047L-2834.915254237288,135.56107745902648L-2823.728813559322,142.49345543418187L-2812.5423728813557,142.74814608718205L-2778.9830508474574,118.42688745808005L-2767.7966101694915,114.23346218282269L-2756.6101694915255,82.69291861432086L-2745.4237288135596,65.49396816533213L-2734.237288135593,61.65858799949951L-2700.677966101695,69.16525674031297L-2689.491525423729,78.76845930481662L-2678.3050847457625,87.58404607509038L-2667.1186440677966,90.03904224072849L-2655.9322033898306,88.8090407627711L-2622.3728813559323,81.23120407445427L-2611.186440677966,80.51827290185064L-2600,64.0884310044622L-2588.813559322034,68.29887340619543L-2577.6271186440677,61.89199979382408L-2544.0677966101694,52.13391455629888L-2532.881355932203,47.31025955497141L-2521.694915254237,42.0821572271912L-2510.508474576271,32.04667196648257L-2499.3220338983047,32.68280255252152L-2454.576271186441,37.17371461671496L-2443.389830508475,39.923306745950825L-2432.2033898305085,34.86796848503724L-2421.0169491525426,31.579133122079696L-2387.4576271186443,33.17737210395353L-2376.271186440678,45.107569856487544L-2365.084745762712,43.38964474514393L-2353.898305084746,30.458506169808146L-2342.7118644067796,38.27628136120302L-2309.1525423728813,41.71198257227486L-2297.966101694915,39.27549364926645L-2286.779661016949,39.77012280534457L-2275.593220338983,45.53928630855407L-2264.406779661017,59.86165692968374L-2230.8474576271187,57.00632615817723L-2219.661016949153,65.61180655077123L-2208.4745762711864,71.05847911598454L-2197.2881355932204,70.97166494886667L-2186.101694915254,62.184062559960495L-2152.5423728813557,71.5093882641115L-2141.35593220339,71.70372921288453L-2130.169491525424,83.07912691905159L-2118.9830508474574,78.31063601773629L-2107.7966101694915,77.88392635594636L-2074.237288135593,84.23503982184414L-2063.050847457627,84.94660008758629L-2051.8644067796613,80.31233884940141L-2040.6779661016951,83.68083582193879L-2029.4915254237287,84.3736206241436L-1995.9322033898304,82.52325398905407L-1984.7457627118642,80.22629954268344L-1973.5593220338983,79.93551827643928L-1962.3728813559323,90.23645282877823L-1951.186440677966,93.60787042897698L-1917.6271186440677,95.91689481619296L-1906.4406779661017,102.30463533715016L-1895.2542372881358,106.77861968183693L-1884.0677966101694,106.67827526004291L-1839.322033898305,114.06573470855578L-1828.135593220339,104.39792070762519L-1816.949152542373,110.68227696983466L-1805.7627118644068,165.93912181133618L-1794.5762711864406,164.5331376156201L-1761.0169491525423,178.49937047600176L-1749.8305084745762,177.38938295306804L-1738.6440677966102,179.9353954133776L-1727.457627118644,182.21226309399555L-1716.2711864406779,180.2930828949255L-1682.7118644067798,180.30047387104813L-1671.5254237288136,190.042167830882L-1660.3389830508474,188.54466070100216L-1649.1525423728813,191.73517820013478L-1637.9661016949153,189.12032237352165L-1604.406779661017,216.41448193866157L-1593.2203389830509,220.94854776666782L-1582.0338983050847,227.87207445186996L-1570.8474576271187,234.42888355163237L-1559.6610169491526,239.03790222217262L-1526.1016949152543,241.0947989561729L-1514.915254237288,233.13894960197095L-1503.7288135593221,217.71505531766087L-1492.542372881356,236.38582329403866L-1481.3559322033898,237.7154539380362L-1447.7966101694915,229.31981170221425L-1436.6101694915253,224.592984448558L-1425.4237288135594,228.71014557906602L-1414.2372881355932,225.2753384376865L-1403.050847457627,220.36916080376392L-1358.3050847457628,225.14596655321728L-1347.1186440677966,230.65573063638067L-1335.9322033898306,224.47788787684178L-1324.7457627118645,224.19563007499707L-1291.1864406779662,228.48504863287945L-1280,225.98725633130547L-1268.8135593220338,226.22639017166046L-1257.6271186440679,236.04732850855115L-1246.4406779661015,228.45596156555814L-1212.8813559322034,214.35818125112274L-1201.6949152542375,206.4046862804437L-1190.5084745762713,212.40469857819323L-1179.322033898305,215.45037678718063L-1168.135593220339,212.5962977132433L-1134.5762711864406,204.5606377378461L-1123.3898305084745,208.18889175830645L-1112.2033898305085,207.4448171580893L-1101.0169491525426,215.4699867157641L-1089.8305084745764,211.43633169451257L-1056.2711864406779,213.48309563866732L-1045.084745762712,205.80750733066398L-1033.8983050847457,208.94533432259976L-1022.7118644067797,204.92735532328575L-1011.5254237288135,213.0288188280329L-977.9661016949152,215.3986101519991L-955.593220338983,203.35751795530254L-944.406779661017,216.341287433189L-933.2203389830509,225.7808752440101L-899.6610169491526,222.11352057567524L-888.4745762711865,218.81613194599512L-877.2881355932203,220.41395369534592L-866.1016949152543,216.88497121304886L-854.9152542372881,217.13775451737226L-821.3559322033899,212.82395765921436L-810.1694915254236,221.24889557861914L-798.9830508474577,214.55839325754158L-787.7966101694915,259.72345625004556L-776.6101694915254,260.228128789L-743.0508474576271,264.9583535074869L-731.8644067796611,273.1735128747658L-720.6779661016949,271.9830590795291L-709.4915254237288,277.78285937085974L-698.3050847457627,279.97514805859043L-664.7457627118644,285.48962090879974L-653.5593220338983,282.926084682522L-642.3728813559322,278.3391793357035L-631.1864406779661,284.2162570507681L-620,280.9118350728422L-586.4406779661017,279.19534047300624L-575.2542372881356,291.14398586352377L-564.0677966101695,290.5079744867771L-552.8813559322034,292.93072453884787L-541.6949152542372,292.54180422271725L-508.13559322033893,292.5445460364402L-496.9491525423729,289.12091476621373L-485.76271186440675,290.8273659831734L-474.5762711864407,287.72419909297406L-463.3898305084746,300.58029541880666L-429.8305084745763,308.15029409615477L-418.6440677966102,303.8818265713942L-407.45762711864404,298.92394190693625L-396.271186440678,290.64867125401486L-385.0847457627118,284.5695635908239L-351.52542372881356,278.61049968497963L-340.33898305084745,287.25666024857117L-329.1525423728813,282.90683238181543L-317.96610169491527,286.9315169038213L-306.77966101694915,283.743472997504L-262.03389830508473,276.1281747890817L-250.84745762711864,283.42029660607716L-239.66101694915255,277.92442040546666L-228.47457627118644,284.36869593329743L-194.91525423728814,287.8309212119061L-183.72881355932202,270.5891746269815L-172.5423728813559,263.6862711493474L-161.35593220338984,261.81718865536664L-150.16949152542372,264.89120887359854L-116.61016949152541,270.02525506975365L-105.42372881355931,272.1294480904742L-94.23728813559323,273.4340745854116L-83.05084745762713,262.839378534521L-71.86440677966101,267.06922224857624L-38.30508474576271,268.0875080234078L-27.118644067796616,262.7042249993753L-15.932203389830505,257.6499596220924L-4.745762711864408,263.9297859311944L6.4406779661016955,264.03936907314176L40,268.24715906812133L51.186440677966104,257.0633902993274L62.3728813559322,255.92789198784132L73.5593220338983,258.034528799054L84.74576271186442,256.27076771482086L118.30508474576271,257.9430654695364L129.49152542372883,251.50570408065911L140.67796610169492,243.41866490028036L151.864406779661,249.43235646432137L163.05084745762713,253.75121971740202L196.61016949152543,253.34879894891836L207.79661016949152,255.30782485393988L218.98305084745763,257.52031951671546L230.16949152542372,166.30569038516046L241.35593220338984,153.76055149829392L274.91525423728814,145.12708672433237L286.10169491525426,160.63871904777562L297.2881355932204,185.98720414863172L308.47457627118644,203.75549817764804L319.66101694915255,204.6047749783204L353.22033898305085,204.94633940308458L364.40677966101697,200.58166997943746L375.59322033898303,202.45090148503357L386.77966101694915,202.55121610450448L397.96610169491527,207.21951159564122L431.52542372881356,219.7374707638632L442.7118644067797,225.37797763835724L453.89830508474574,222.20924563739257L465.08474576271186,220.73334519174222L476.271186440678,219.04525220579683LNaN,227.01442319841345"></path><path fill="none" stroke="green" stroke-width="2.5" stroke-linejoin="round" d="M487.45762711864404,226.75644971703437L498.64406779661016,226.63115082869987L509.8305084745763,226.50299645052206L521.0169491525423,226.37564283608822L532.2033898305085,226.24806594841834L543.3898305084746,226.1140988365135L554.5762711864407,225.97344387349165L565.7627118644067,225.82733533554054L576.9491525423729,225.67800542427656L588.1355932203389,225.52745874428842L599.3220338983051,225.37701710908215L610.5084745762713,225.22727577242222L621.6949152542372,225.07846233133608L632.8813559322034,224.93055052462833L644.0677966101695,224.76581005037508L655.2542372881356,224.60219021129038L666.4406779661017,224.4390594725395L677.6271186440678,224.27649672127296L688.8135593220339,224.1144861800607L700,223.9529884053275"></path><g transform="translate(0,520)" fill="none" font-size="10" font-family="sans-serif" text-anchor="middle"><g class="tick" opacity="1" transform="translate(106.6864406779661,0)"><line stroke="currentColor" y2="6"></line><text fill="currentColor" y="9" dy="0.71em">Oct 08</text></g><g class="tick" opacity="1" transform="translate(184.99152542372883,0)"><line stroke="currentColor" y2="6"></line><text fill="currentColor" y="9" dy="0.71em">Oct 15</text></g><g class="tick" opacity="1" transform="translate(263.29661016949154,0)"><line stroke="currentColor" y2="6"></line><text fill="currentColor" y="9" dy="0.71em">Oct 22</text></g><g class="tick" opacity="1" transform="translate(341.60169491525426,0)"><line stroke="currentColor" y2="6"></line><text fill="currentColor" y="9" dy="0.71em">Oct 29</text></g><g class="tick" opacity="1" transform="translate(420.37288135593224,0)"><line stroke="currentColor" y2="6"></line><text fill="currentColor" y="9" dy="0.71em">Nov 05</text></g><g class="tick" opacity="1" transform="translate(498.67796610169495,0)"><line stroke="currentColor" y2="6"></line><text fill="currentColor" y="9" dy="0.71em">Nov 12</text></g><g class="tick" opacity="1" transform="translate(576.9830508474575,0)"><line stroke="currentColor" y2="6"></line><text fill="currentColor" y="9" dy="0.71em">Nov 19</text></g><g class="tick" opacity="1" transform="translate(655.2881355932203,0)"><line stroke="currentColor" y2="6"></line><text fill="currentColor" y="9" dy="0.71em">Nov 26</text></g></g><g transform="translate(40, 0)" fill="none" font-size="10" font-family="sans-serif" text-anchor="end"><g class="tick" opacity="1" transform="translate(0,485.7305366591081)"><line stroke="currentColor" x2="-6"></line><text fill="currentColor" x="-9" dy="0.32em">115</text></g><g class="tick" opacity="1" transform="translate(0,447.9376417233561)"><line stroke="currentColor" x2="-6"></line><text fill="currentColor" x="-9" dy="0.32em">120</text></g><g class="tick" opacity="1" transform="translate(0,410.14474678760394)"><line stroke="currentColor" x2="-6"></line><text fill="currentColor" x="-9" dy="0.32em">125</text></g><g class="tick" opacity="1" transform="translate(0,372.3518518518519)"><line stroke="currentColor" x2="-6"></line><text fill="currentColor" x="-9" dy="0.32em">130</text></g><g class="tick" opacity="1" transform="translate(0,334.5589569160999)"><line stroke="currentColor" x2="-6"></line><text fill="currentColor" x="-9" dy="0.32em">135</text></g><g class="tick" opacity="1" transform="translate(0,296.76606198034773)"><line stroke="currentColor" x2="-6"></line><text fill="currentColor" x="-9" dy="0.32em">140</text></g><g class="tick" opacity="1" transform="translate(0,258.9731670445957)"><line stroke="currentColor" x2="-6"></line><text fill="currentColor" x="-9" dy="0.32em">145</text></g><g class="tick" opacity="1" transform="translate(0,221.1802721088436)"><line stroke="currentColor" x2="-6"></line><text fill="currentColor" x="-9" dy="0.32em">150</text></g><g class="tick" opacity="1" transform="translate(0,183.38737717309155)"><line stroke="currentColor" x2="-6"></line><text fill="currentColor" x="-9" dy="0.32em">155</text></g><g class="tick" opacity="1" transform="translate(0,145.59448223733943)"><line stroke="currentColor" x2="-6"></line><text fill="currentColor" x="-9" dy="0.32em">160</text></g><g class="tick" opacity="1" transform="translate(0,107.80158730158738)"><line stroke="currentColor" x2="-6"></line><text fill="currentColor" x="-9" dy="0.32em">165</text></g><g class="tick" opacity="1" transform="translate(0,70.00869236583533)"><line stroke="currentColor" x2="-6"></line><text fill="currentColor" x="-9" dy="0.32em">170</text></g><g class="tick" opacity="1" transform="translate(0,32.215797430083214)"><line stroke="currentColor" x2="-6"></line><text fill="currentColor" x="-9" dy="0.32em">175</text></g></g></svg>