<svg xmlns="http://www.w3.org/2000/svg" width="800" height="600"><path fill="none" stroke="blue" stroke-width="2.5" stroke-linejoin="round" d="M40,520L41.010719754977025,519.4021522518937L42.02143950995406,477.35352730171405L45.053598774885145,470.9764846552411L46.06431852986217,476.22425933306766L47.0750382848392,475.5599840573936L48.08575803981624,445.401886541783L49.09647779479326,423.34794738939826L52.12863705972435,418.3658828218417L53.13935681470137,453.57247243257603L54.150076569678404,436.0356051547763L55.160796324655436,447.79327753421035L56.17151607963247,453.57247243257603L59.20367534456355,440.2869669190915L60.21439509954058,399.5668925202606L61.225114854517614,446.5975820379967L62.235834609494646,455.2995881493292L63.24655436447168,411.5238474823969L67.28943338437978,395.78052344891734L68.30015313935681,387.6763650856916L69.31087289433384,380.10362694300545L70.32159264931087,370.0730702803242L73.35375191424197,359.3782383419688L74.364471669219,375.0551348478812L75.375191424196,361.30463664142434L76.38591117917304,345.5613126079447L77.39663093415008,409.5974491829413L80.42879019908116,410.1952969310482L81.4395099540582,375.0551348478812L82.45022970903523,370.0730702803242L83.46094946401226,358.11611531818784L84.47166921898928,348.7498339311812L87.50382848392036,354.9940215225191L88.51454823889739,335.59718347283126L89.52526799387442,304.8412382091139L90.53598774885145,278.40308223727936L91.54670750382849,258.2091138567823L94.57886676875958,252.56277401355126L95.58958652373661,255.6184402816527L96.60030627871363,267.70825029892404L97.61102603369066,222.13896638767116L98.62174578866768,232.8337983260265L101.65390505359876,228.51600903414362L102.66462480857581,239.210840972499L103.67534456355284,241.73508702006134L104.68606431852986,234.16234887737474L108.728943338438,220.27899561578337L109.739663093415,177.30038527965968L110.75038284839204,170.92334263318716L111.76110260336907,182.88029759532353L112.77182235834609,155.11359107214034L115.80398162327718,151.26079447322974L116.81470137825421,174.04543642885594L117.82542113323123,162.68632921482651L118.83614088820826,184.87312342234634L119.8468606431853,152.58934502457797L122.87901990811638,179.75820379965432L123.88973966309341,166.40627075860252L124.90045941807045,205.06709180284287L125.91117917304749,218.35259731632786L126.9218989280245,201.28072273150005L129.95405819295559,193.70798458881342L130.96477794793262,169.72764713697356L131.97549770290965,310.68686063504725L132.98621745788668,355.59186927062603L133.9969372128637,299.92560116912466L137.02909647779478,289.2307692307693L138.03981623277184,300.52344891723146L139.05053598774884,291.09074000265707L140.06125574272588,294.2128337983263L141.0719754977029,283.51800185997087L144.104134762634,272.0924671183737L145.114854517611,280.9937558124085L146.12557427258807,272.0924671183737L147.1362940275651,267.0439750232494L148.14701378254213,250.56994818652842L151.17917304747323,255.6184402816527L152.18989280245023,223.4675169390194L153.20061255742726,241.73508702006134L154.2113323124043,218.35259731632786L155.22205206738133,248.70997741464066L158.25421133231242,231.63810282981282L159.26493108728943,286.6400956556396L160.27565084226646,303.77839776803523L161.2863705972435,313.80895443071597L162.29709035222052,337.19144413444945L165.32924961715162,335.9957486382358L166.33996937212865,310.68686063504725L167.35068912710568,310.0225853593731L168.36140888208269,290.4928922545502L169.37212863705975,284.78012488375185L173.41500765696784,296.1392320977813L174.42572741194488,289.82861697887614L175.43644716692188,288.56649395509515L176.4471669218989,268.3725255745981L179.47932618683,247.381426863292L180.49004594180707,250.56994818652842L181.50076569678407,236.08874717683022L182.51148545176108,222.8032416633453L183.52220520673814,208.25561312607937L186.55436447166923,241.33652185465678L187.56508422664626,246.5178690049156L188.57580398162327,248.37783977680337L189.58652373660033,229.31313936495278L190.59724349157733,262.3276205659625L193.62940275650843,250.30423807625888L194.64012251148546,240.73867410654995L195.65084226646246,257.9434037465128L196.66156202143952,243.92719542978594L197.67228177641653,317.1967583366547L200.70444104134762,326.76232230636367L201.71516079632465,301.2541517204728L202.7258805513017,284.7136973561846L203.7366003062787,227.98458881360455L204.74732006125572,241.33652185465678L208.79019908116388,221.67397369469887L209.8009188361409,231.83738541251512L210.8116385911179,243.26292015411187L211.82235834609494,224.79606749036807L214.85451761102604,212.70625747309677L215.86523736600307,212.04198219742264L216.8759571209801,201.87857047960688L217.8866768759571,205.06709180284287L218.89739663093417,208.8534608741862L221.92955589586524,208.8534608741862L222.94027565084227,208.8534608741862L223.9509954058193,216.49262654444007L224.96171516079636,220.34542314335062L225.97243491577336,196.0993755812408L229.00459418070443,212.70625747309677L230.0153139356815,256.68128072273134L231.0260336906585,350.9419423409063L232.03675344563553,335.0657632522916L233.04747320061256,336.3278862760731L236.07963246554365,347.8198485452371L237.09035222052069,342.7049289225455L238.1010719754977,335.7300385279662L239.11179173047472,343.96705194632654L240.12251148545175,345.89345024578205L243.15467075038285,348.48412382091163L244.16539050535988,346.4912979938889L245.17611026033688,337.590009299854L246.18683001531394,328.6887206058192L247.19754977029098,310.8197156901823L250.22970903522204,297.5342101766973L251.24042879019908,323.5738009831277L252.2511485451761,308.8933173907268L253.26186830015314,306.4354988707321L254.27258805513017,317.86103361232887L257.3047473200612,329.28656835392604L258.31546707503827,322.3116779593462L259.32618683001533,322.3116779593462L260.33690658499233,333.8036402285107L261.3476263399694,356.1232894911651L264.37978560490046,342.0406536468715L265.39050535987747,361.17178158628934L266.4012251148545,349.14839909658576L267.41194486983153,354.13046366414227L268.4226646248086,334.4014879766176L272.46554364471666,326.09804703068954L273.4762633996937,335.7300385279662L274.4869831546708,336.3278862760731L275.4977029096478,423.0158097515614L278.52986217457885,364.4267304370931L279.54058192955586,400.297595323502L280.5513016845329,411.25813737212735L281.5620214395099,395.2491032283782L282.572741194487,409.33173907267184L285.6049004594181,411.9224126478015L286.61562021439505,396.51122625215913L287.6263399693721,384.28856117975283L288.63705972434917,356.72113723927197L289.64777947932623,370.80377308356606L292.6799387442573,415.1773614986052L293.69065849923425,380.50219210841L294.70137825421136,408.66746379699777L295.71209800918837,416.3730569948189L296.7228177641654,397.83977680350733L299.7549770290965,416.3730569948189L300.7656967840735,428.662149594792L301.77641653905056,430.58854789424754L302.78713629402756,437.03201806828775L303.7978560490046,435.70346751693904L306.8300153139357,435.70346751693904L307.8407350689127,447.8597050617776L308.85145482388975,432.44851866613527L309.86217457886676,433.7106416899163L310.87289433384376,439.5562641158497L313.9050535987749,444.07333599043477L314.91577335375194,420.2922811212967L315.92649310872895,415.1773614986052L316.93721286370595,422.8829546964264L317.947932618683,409.99601434834597L320.98009188361414,382.3621628802978L321.99081163859114,383.62428590407865L323.00153139356814,390.1341836056862L324.01225114854515,410.59386209645277L325.02297090352215,403.5525441743062L328.05513016845333,392.59200212568084L329.06584992343033,410.59386209645277L330.07656967840734,415.1773614986052L331.08728943338434,416.3730569948189L332.0980091883614,438.2277135645014L335.1301684532925,388.80563305433805L336.14088820826953,361.7696293343962L337.15160796324653,400.96187059917656L338.1623277182236,486.3876710508839L339.1730474732006,480.6749036800851L342.2052067381317,471.64075993091564L343.2159264931087,454.3031752358179L344.2266462480858,465.92799256011733L345.2373660030628,474.8957087817194L346.2480857580398,488.38049687790624L349.2802450229709,459.4845223860771L350.2909647779479,458.8202471104026L351.301684532925,474.8957087817194L353.32312404287904,448.5239803374522L356.3552833078101,434.37491696559084L357.3660030627871,450.5832336920423L358.3767228177642,502.3967051946331L359.3874425727412,514.0879500464994L360.3981623277182,501.79885744652626L363.4303215926493,484.9262654444002L364.44104134762637,488.181214295204L365.4517611026034,441.4826624153052L366.4624808575804,461.67663079580217L367.4732006125574,395.51481333864774L370.5053598774885,402.0247110402553L371.5160796324655,411.0588547894251L372.52679938744257,446.7304370931317L373.53751914241957,424.6764979407469L374.5482388973966,412.38740534077334L377.58039816232775,416.904477215358L378.59111791730476,417.50232496346484L379.6018376722818,423.414374916966L380.6125574272588,424.6764979407469L381.6232771822358,421.4879766175104L385.6661562021439,420.8237013418363L386.67687595712096,435.03919224126497L387.687595712098,421.4879766175104L388.698315467075,430.5221203666802L392.74119448698315,408.46818121429544L393.7519142419602,418.1666002391394L394.7626339969372,411.72313006509916L395.7733537519142,412.38740534077334L398.8055130168454,439.6226916434174L399.81623277182234,457.75740666932387L400.8269525267994,457.09313139364974L401.8376722817764,463.53660156768996L402.8483920367534,468.1201009698419L406.89127105666154,446.1325893450248L407.9019908116386,441.4826624153052L408.91271056661566,451.2475089677164L409.92343032159266,439.6226916434174L412.9555895865238,432.44851866613527L413.9663093415008,402.0247110402553L414.9770290964778,387.80922014082665L415.9877488514548,407.80390593862137L416.9984686064318,431.18639564235434L420.030627871363,435.70346751693904L421.04134762634,423.414374916966L422.052067381317,443.47548824232797L423.06278713629405,434.37491696559084L424.07350689127105,425.2743456888537L427.1056661562022,424.07865019264005L428.1163859111792,402.0247110402553L429.1271056661561,394.25269031486675L430.1378254211332,444.1397635180021L431.1485451761102,487.51693901952984L434.18070444104137,484.9262654444002L435.1914241960184,490.83831539790134L436.2021439509954,496.617510296267L437.21286370597244,447.32828484123854L438.22358346094944,445.46831406935024L442.2664624808576,430.5221203666802L443.27718223583463,421.4879766175104L444.28790199081163,417.50232496346484L445.29862174578864,409.79673176564364L448.33078101071976,416.904477215358L449.34150076569676,398.1054869137774L450.35222052067377,385.1521190381297L451.36294027565083,365.1574332403349L452.3736600306279,364.49315796466084L455.405819295559,383.82356848678097L456.416539050536,396.17908861432187L457.427258805513,396.17908861432187L458.43797856049,393.5884150391923L459.448698315467,376.7158230370667L462.48085758039815,369.54165005978507L463.49157733537515,373.5273017138301L464.5022970903522,363.6960276338517L465.5130168453293,355.1933041052214L466.5237366003063,369.54165005978507L469.5558958652374,359.71037597980614L470.5666156202144,338.852132323635L471.5773353751914,346.6905805765912L472.5880551301685,360.3746512554802L473.5987748851454,363.6960276338517L476.6309341500766,350.54337717550175L477.6416539050536,343.3692041982197L478.6523736600306,344.03347947389426L479.66309341500767,332.34223462202743L480.67381316998467,342.7049289225455L483.7059724349158,344.69775474956833L484.71669218989285,327.02803241663366L485.72741194486986,334.2022053939153L486.7381316998469,327.6923076923078L487.74885145482386,331.6779593463534L490.781010719755,326.36375714095914L491.791730474732,328.3565829679819L492.802450229709,310.0225853593731L493.81316998468606,319.8538594393516L497.85604900459424,301.58628935831007L498.86676875957124,274.7495682210711L499.87748851454825,291.09074000265707L500.8882082695253,300.2577388069615L501.8989280245023,301.58628935831007L504.9310872894334,287.8357911518533L505.9418070444104,298.9956157831805L506.9525267993874,290.4928922545502L507.9632465543645,305.505513484788L508.9739663093415,296.33851468048357L512.0061255742726,291.7550152783311L513.0168453292496,280.6616181745717L514.0275650842267,285.24511757672366L515.0382848392037,262.9918958416366L516.0490045941807,261.0654975421815L519.0811638591117,247.9792746113988L520.0918836140888,272.8231699216156L521.1026033690658,268.9039457951377L522.1133231240428,262.3276205659625L523.1240428790198,267.57539524378905L526.156202143951,258.40839643948465L527.1669218989281,250.56994818652842L528.1776416539051,245.38860103626968L529.1883614088821,253.89132456489992L530.1990811638591,247.3149993357247L533.2312404287901,229.04742925468324L534.2419601837672,215.29693104822636L535.2526799387442,173.51401620831683L536.2633996937212,148.6701208981001L537.2741194486983,149.86581639431378L541.3169984686065,147.3415703467514L542.3277182235835,144.68446924405453L543.3384379785605,123.8262255878834L544.3491577335375,117.24990035870862L547.3813169984685,110.67357512953339L548.3920367534456,111.33785040520797L549.4027565084227,142.0273681413576L550.4134762633996,166.87126345157435L551.4241960183767,154.5157433240335L554.4563552833077,153.8514680483594L555.4670750382849,149.20154111863968L556.477794793262,131.46539125813726L557.4885145482389,134.720340108941L558.499234303216,130.80111598246316L561.531393568147,126.15118905274346L562.542113323124,111.00571276737068L563.5528330781011,136.71316593596381L564.563552833078,146.61086754351004L565.5742725880551,134.720340108941L568.6064318529862,122.89624020193972L569.6171516079633,147.93941809485824L570.6278713629404,130.13684070678858L571.6385911179173,162.42061910455695L572.6493108728944,161.09206855320826L575.6814701378254,167.00411850670935L577.7029096477795,163.08489438023102L578.7136294027564,190.785173375847L579.7243491577335,191.38302112395382L582.7565084226646,192.0472963996279L583.7672281776416,195.3686727779994L584.7779479326188,183.47814534343036L585.7886676875956,188.79234754882415L586.7993874425728,172.31832071210317L589.8315467075039,168.99694433373168L590.8422664624808,172.9825959877773L591.8529862174579,162.42061910455695L592.8637059724349,163.08489438023102L593.8744257274119,149.20154111863968L596.906584992343,161.7563438288828L597.91730474732,135.38461538461513L598.9280245022971,102.43656171117314L599.938744257274,77.39338381825415L600.9494640122512,84.63398432310348L603.9816232771823,95.86023648199792L604.9923430321593,105.09366281387004L606.0030627871363,112.33426331871941L607.0137825421133,107.08648864089285L608.0245022970903,118.24631327222005L611.0566615620214,109.01288694034793L612.0673813169985,111.66998804304484L613.0781010719755,112.33426331871941L614.0888208269525,102.43656171117314L615.0995405819295,112.33426331871941L618.1316998468607,98.51733758469481L619.1424196018377,72.80988441610174L620.1531393568147,72.1456091404276L621.1638591117917,94.53168593064973L622.1745788667687,107.08648864089285L625.2067381316998,106.42221336521828L626.2174578866769,111.66998804304484L627.2281776416539,115.65563969709041L628.2388973966309,124.15836322572069L629.2496171516079,113.66281387006758L632.2817764165391,123.56051547761386L633.2924961715162,121.56768965059103L634.3032159264931,125.48691377706936L635.3139356814701,114.9913644214163L636.3246554364472,99.77946060847623L640.3675344563553,90.61246180417142L641.3782542113323,87.9553607014745L642.3889739663093,66.83140693503378L643.3996937212863,65.56928391125287L646.4318529862175,51.02165537398693L647.4425727411946,37.86900491563692L648.4532924961716,27.971303308090704L649.4640122511485,53.878039059386076L650.4747320061256,49.228112129666414L653.5068912710566,53.878039059386076L654.5176110260337,62.51361764315136L655.5283307810107,75.79912315663593L656.5390505359877,101.04158363225721L657.5497702909648,95.06310615118883L660.5819295558958,81.77760063770432L661.592649310873,89.74890394579504L662.60336906585,151.5265045834993L663.6140888208269,133.59107214029507L664.624808575804,126.94831938355259L667.656967840735,140.89810017271168L668.6676875957121,114.9913644214163L669.6784073506892,94.39883087551469L670.6891271056661,93.07028032416602L671.6998468606432,95.06310615118883L674.7320061255742,100.37730835658309L675.7427258805513,69.82064567556799L676.7534456355285,54.542314335060226L677.7641653905054,53.878039059386076L678.7748851454824,49.228112129666414L681.8070444104135,20L682.8177641653905,26.642752756742034L683.8284839203676,34.61405606483318L684.8392036753445,21.992825827022315L685.8499234303216,35.94260661618141L688.8820826952527,39.92825827022698L689.8928024502297,49.228112129666414L690.9035222052069,57.86369071343171L691.9142419601837,45.90673575129537L692.9249617151607,56.53514016208304L695.9571209800919,70.48492095124213L696.9678407350689,62.51361764315136L697.978560490046,74.47057260528771L698.9892802450229,69.1563703998934L700,63.17789291882551"></path><path fill="none" stroke="red" stroke-width="2.5" stroke-linejoin="round" d="M40,488.1464684971151L41.010719754977025,515.736648914922L42.02143950995406,519.0065275950471L45.053598774885145,480.21927004106806L46.06431852986217,469.1536362829989L47.0750382848392,474.93069979397285L48.08575803981624,475.8635968600099L49.09647779479326,447.3452525152526L52.12863705972435,423.5575799824412L53.13935681470137,417.88345256341887L54.150076569678404,452.1029868826797L55.160796324655436,437.472156777009L56.17151607963247,446.5210433509409L59.20367534456355,452.5456167259987L60.21439509954058,440.24946363723404L61.225114854517614,400.34673069458023L62.235834609494646,442.9162892705315L63.24655436447168,455.08682438314565L67.28943338437978,413.44232724281244L68.30015313935681,394.631112779735L69.31087289433384,386.94093149236625L70.32159264931087,380.09174613264895L73.35375191424197,370.16798798912515L74.364471669219,359.3312840065978L75.375191424196,374.0985540119933L76.38591117917304,361.3392504818077L77.39663093415008,345.38214212757134L80.42879019908116,406.8097817647567L81.4395099540582,409.73529552678923L82.45022970903523,375.6815140341003L83.46094946401226,368.758829454001L84.47166921898928,357.6560161524849L87.50382848392036,348.4620445344409L88.51454823889739,354.2796999420003L89.52526799387442,335.710890369753L90.53598774885145,305.22804928789424L91.54670750382849,278.9091311549986L94.57886676875958,258.98724803451216L95.58958652373661,252.9606218249897L96.60030627871363,255.3864989179453L97.61102603369066,266.70172248747105L98.62174578866768,223.668610649751L101.65390505359876,232.73104593115L102.66462480857581,228.89504973147157L103.67534456355284,238.61569346116556L104.68606431852986,241.3157672662463L108.728943338438,234.39137844621393L109.739663093415,221.29029734401567L110.75038284839204,180.8150947147858L111.76110260336907,173.3799606799316L112.77182235834609,183.64512456130086L115.80398162327718,157.85746449478404L116.81470137825421,153.35411892353375L117.82542113323123,173.9655065347207L118.83614088820826,164.14130698946315L119.8468606431853,184.39337885041806L122.87901990811638,155.95178340173308L123.88973966309341,179.8647485557986L124.90045941807045,168.5476038430757L125.91117917304749,203.6992567005861L126.9218989280245,217.56721478644187L129.95405819295559,202.61777702530173L130.96477794793262,195.6359708126185L131.97549770290965,173.175978653045L132.98621745788668,304.5492350295006L133.9969372128637,351.14919710221164L137.02909647779478,302.2764916410678L138.03981623277184,291.0072825497324L139.05053598774884,301.0274387011013L140.06125574272588,291.6622374490644L141.0719754977029,294.01408855656774L144.104134762634,283.6120277293098L145.114854517611,272.2562122631987L146.12557427258807,280.43018078826776L147.1362940275651,272.0128777869507L148.14701378254213,266.9263722968175L151.17917304747323,251.09082272907298L152.18989280245023,255.42008793771512L153.20061255742726,224.92249743389107L154.2113323124043,241.24031591648645L155.22205206738133,219.4376955783317L158.25421133231242,247.3871685067351L159.26493108728943,232.00345942449272L160.27565084226646,284.0529300930603L161.2863705972435,302.1330875972532L162.29709035222052,312.97192962624194L165.32924961715162,336.29612636273606L166.33996937212865,336.0028421633616L167.35068912710568,311.55099634248995L168.36140888208269,309.8736834004575L169.37212863705975,290.9578286054956L173.41500765696784,284.7531558022482L174.42572741194488,295.4235259673173L175.43644716692188,289.46736233247816L176.4471669218989,288.07496732105824L179.47932618683,268.7355934096621L180.49004594180707,248.18630210439667L181.50076569678407,250.61719895860938L182.51148545176108,236.68856993113977L183.52220520673814,223.55582095236875L186.55436447166923,209.42184650606615L187.56508422664626,239.9969334475696L188.57580398162327,245.55194998836748L189.58652373660033,247.78617755431506L190.59724349157733,230.28862221775424L193.62940275650843,261.22321082657334L194.64012251148546,250.56306610110198L195.65084226646246,241.332344872867L196.66156202143952,257.49498456302L197.67228177641653,244.46839423898297L200.70444104134762,314.1675933770356L201.71516079632465,325.2964040840746L202.7258805513017,301.978435569881L203.7366003062787,285.53831463245933L204.74732006125572,230.8583031480764L208.79019908116388,241.63046291641498L209.8009188361409,222.9479960337286L210.8116385911179,231.4733788329768L211.82235834609494,242.35656208640347L214.85451761102604,225.20853086700518L215.86523736600307,213.64529390796093L216.8759571209801,212.75447220190537L217.8866768759571,203.0078930390496L218.89739663093417,205.52297934595123L221.92955589586524,209.04214184899962L222.94027565084227,209.12602143988255L223.9509954058193,209.2572479147215L224.96171516079636,216.5246847401711L225.97243491577336,220.4334055057166L229.00459418070443,198.02017149266774L230.0153139356815,212.87410984520014L231.0260336906585,254.62795721686908L232.03675344563553,345.9730485916041L233.04747320061256,334.52917040022913L236.07963246554365,337.02207060182155L237.09035222052069,348.0034490615681L238.1010719754977,343.0635391918512L239.11179173047472,335.7650232272603L240.12251148545175,343.24948726162893L243.15467075038285,345.2796398421481L244.16539050535988,347.7490835050266L245.17611026033688,345.8622420097802L246.18683001531394,337.185057911775L247.19754977029098,328.3107707189762L250.22970903522204,310.830350740287L251.24042879019908,297.51983404341655L252.2511485451761,322.3509507148263L253.26186830015314,308.7176509746506L254.27258805513017,305.9027733704487L257.3047473200612,316.9381297567996L258.31546707503827,328.3001424590306L259.32618683001533,321.9100483510757L260.33690658499233,321.7535061666869L261.3476263399694,332.9009085820858L264.37978560490046,354.8140566264389L265.39050535987747,341.88854322351756L266.4012251148545,359.8512631032383L267.41194486983153,348.9369387383091L268.4226646248086,353.26722649091107L272.46554364471666,334.4023129768548L273.4762633996937,325.69934837659076L274.4869831546708,334.8775790148901L275.4977029096478,335.74894139952914L278.52986217457885,419.4526314817042L279.54058192955586,365.9927550842432L280.5513016845329,397.6981869078365L281.5620214395099,410.0811865142764L282.572741194487,395.2097797024311L285.6049004594181,407.56217270898384L286.61562021439505,410.9576616187144L287.6263399693721,396.2681281938979L288.63705972434917,383.6176326368875L289.64777947932623,356.75100277571477L292.6799387442573,369.56626734806315L293.69065849923425,413.42106297637605L294.70137825421136,381.4736678150262L295.71209800918837,406.43185881307465L296.7228177641654,415.33394835641633L299.7549770290965,397.84481351443344L300.7656967840735,414.3788148325265L301.77641653905056,427.3972248048853L302.78713629402756,429.7824092961686L303.7978560490046,435.68726756248014L306.8300153139357,434.70774016791336L307.8407350689127,434.5706805445765L308.85145482388975,446.18453342963016L309.86217457886676,432.451094100302L310.87289433384376,432.43608129580156L313.9050535987749,438.37087221257224L314.91577335375194,443.2209918774568L315.92649310872895,420.75656094751247L316.93721286370595,414.1496023080867L317.947932618683,421.77668798520966L320.98009188361414,410.2044495407013L321.99081163859114,382.74509277738565L323.00153139356814,382.63605240785586L324.01225114854515,389.5763681247164L325.02297090352215,409.5909618975566L328.05513016845333,403.4073287109364L329.06584992343033,392.12371104562214L330.07656967840734,408.8593162012408L331.08728943338434,414.38394304541566L332.0980091883614,415.58066032634963L335.1301684532925,436.3105158525136L336.14088820826953,390.26921912292164L337.15160796324653,361.0378788892968L338.1623277182236,398.6046566350948L339.1730474732006,482.81121369567416L342.2052067381317,480.967415878553L343.2159264931087,470.7640190749363L344.2266462480858,452.91759807755074L345.2373660030628,462.8863326622147L346.2480857580398,473.3236170302692L349.2802450229709,486.8186486860646L350.2909647779479,460.7251937497562L351.301684532925,457.1081226625585L353.32312404287904,472.9048000667409L356.3552833078101,449.96335237955725L357.3660030627871,434.06497833064725L358.3767228177642,448.83856951688506L359.3874425727412,499.3356867632329L360.3981623277182,513.3722968201829L363.4303215926493,501.7108975776357L364.44104134762637,483.98791390394086L365.4517611026034,485.6280744154345L366.4624808575804,443.744728048495L367.4732006125574,458.8087139727664L370.5053598774885,399.217191453186L371.5160796324655,400.5733016471239L372.52679938744257,411.09025923204484L373.53751914241957,445.8443129131926L374.5482388973966,425.8585982606711L377.58039816232775,411.84189876139254L378.59111791730476,415.4740678650873L379.6018376722818,416.84859934339164L380.6125574272588,422.5794702056369L381.6232771822358,423.9910456628479L385.6661562021439,420.84195886124473L386.67687595712096,419.9321426264817L387.687595712098,433.54355063006375L388.698315467075,421.4884080540021L392.74119448698315,429.04213394855583L393.7519142419602,408.66648919937L394.7626339969372,416.65344837797585L395.7733537519142,411.41611765377456L398.8055130168454,411.69627920566506L399.81623277182234,437.78023687761964L400.8269525267994,456.4380774932746L401.8376722817764,456.39221019944216L402.8483920367534,461.7788555814074L406.89127105666154,466.4541124826237L407.9019908116386,446.21951682752695L408.91271056661566,440.09788698828635L409.92343032159266,449.73013489127504L412.9555895865238,439.8969338605533L413.9663093415008,432.0683218113562L414.9770290964778,402.63420801188806L415.9877488514548,387.3562392709416L416.9984686064318,406.667663647437L420.030627871363,430.4176879708199L421.04134762634,435.3445216723237L422.052067381317,423.17027596458274L423.06278713629405,441.1831779637844L424.07350689127105,434.0397245934587L427.1056661562022,424.62297782999445L428.1163859111792,422.9675411314653L429.1271056661561,402.17376886126954L430.1378254211332,393.60336314161026L431.1485451761102,441.59960124486133L434.18070444104137,485.2918162568411L435.1914241960184,484.67059368836425L436.2021439509954,488.5943543713183L437.21286370597244,494.0168004116936L438.22358346094944,449.1824541491785L442.2664624808576,442.8497309546037L443.27718223583463,430.4377437762129L444.28790199081163,421.69925351989156L445.29862174578864,417.57861826522594L448.33078101071976,410.0195704941543L449.34150076569676,416.3109736168997L450.35222052067377,398.56660560531856L451.36294027565083,384.8840068518091L452.3736600306279,365.1597845773669L455.405819295559,363.9566221708683L456.416539050536,382.9103420785229L457.427258805513,395.4310675111825L458.43797856049,395.5788870857325L459.448698315467,392.8071112587445L462.48085758039815,376.39435111879214L463.49157733537515,368.8027678580911L464.5022970903522,372.6773728387965L465.5130168453293,363.4863139217289L466.5237366003063,354.80333540795147L469.5558958652374,368.420553320396L470.5666156202144,359.47196126651954L471.5773353751914,338.81313381283485L472.5880551301685,345.6987589209371L473.5987748851454,359.4167748788719L476.6309341500766,362.9913096866516L477.6416539050536,350.26184584838325L478.6523736600306,342.8126131013563L479.66309341500767,343.3443049742635L480.67381316998467,332.138462622254L483.7059724349158,341.7700210827243L484.71669218989285,344.0344911609371L485.72741194486986,326.95097316954696L486.7381316998469,333.30475147383925L487.74885145482386,327.32888062813873L490.781010719755,330.9572074454392L491.791730474732,325.93230248233783L492.802450229709,327.68763862711995L493.81316998468606,310.05253563487787L497.85604900459424,319.0064573118174L498.86676875957124,301.6822386695302L499.87748851454825,275.3083200660705L500.8882082695253,290.31285125631655L501.8989280245023,299.45365058845175L504.9310872894334,300.8329384454781L505.9418070444104,287.7507279272649L506.9525267993874,298.223809080457L507.9632465543645,290.364970012085L508.9739663093415,304.57501553175945L512.0061255742726,296.153095589533L513.0168453292496,291.53070111241937L514.0275650842267,280.7765753011897L515.0382848392037,284.8381199094521L516.0490045941807,263.54506731125633L519.0811638591117,261.0555446033494L520.0918836140888,248.4456564360146L521.1026033690658,271.66555368861066L522.1133231240428,268.4052187521101L523.1240428790198,262.1878106286363L526.156202143951,267.2178902838978L527.1669218989281,258.62294350920365L528.1776416539051,250.91218739791682L529.1883614088821,245.73197969765067L530.1990811638591,253.54344089588596L533.2312404287901,247.3825825520064L534.2419601837672,229.93578257926754L535.2526799387442,216.50643387979792L536.2633996937212,177.0191636466225L537.2741194486983,152.6318620399396L541.3169984686065,152.32317770880724L542.3277182235835,149.24541334839893L543.3384379785605,146.34092370990325L544.3491577335375,127.56112923395378L547.3813169984685,120.9545346821501L548.3920367534456,114.71779118198226L549.4027565084227,114.71512637045072L550.4134762633996,141.94274523560773L551.4241960183767,165.82236925934814L554.4563552833077,156.2545183861904L555.4670750382849,156.12307500808723L556.477794793262,152.19334561209527L557.4885145482389,135.82873799679462L558.499234303216,137.76469258829124L561.531393568147,133.97337846103727L562.542113323124,129.33911627675408L563.5528330781011,115.60421285039267L564.563552833078,137.714804837526L565.5742725880551,147.56239894913617L568.6064318529862,137.49027897290193L569.6171516079633,126.95844802129318L570.6278713629404,148.99110976421872L571.6385911179173,133.76065833122163L572.6493108728944,162.23469631099422L575.6814701378254,162.47747303599147L577.7029096477795,168.12526220150423L578.7136294027564,165.18179194781433L579.7243491577335,190.57220917904536L582.7565084226646,192.12034073415845L583.7672281776416,193.08432081260943L584.7779479326188,196.47411601165484L585.7886676875956,185.56927341798908L586.7993874425728,190.0125367850569L589.8315467075039,174.78059801539095L590.8422664624808,170.98770359292647L591.8529862174579,174.30657142457954L592.8637059724349,164.5011804909459L593.8744257274119,164.69447228552573L596.906584992343,152.03234141770014L597.91730474732,162.82272106023123L598.9280245022971,139.2687617945918L599.938744257274,108.8628284129811L600.9494640122512,85.35522447351849L603.9816232771823,89.6688726471385L604.9923430321593,98.95750704691395L606.0030627871363,107.26084287598601L607.0137825421133,114.44319164950932L608.0245022970903,110.72807254034959L611.0566615620214,120.77472187613111L612.0673813169985,113.32555110146534L613.0781010719755,115.3253682111776L614.0888208269525,116.04517718650442L615.0995405819295,107.23971030081718L618.1316998468607,115.44578050898733L619.1424196018377,103.64373305606259L620.1531393568147,80.59233865356667L621.1638591117917,78.58263695224319L622.1745788667687,97.40785716895155L625.2067381316998,109.14065050823632L626.2174578866769,109.47554914815592L627.2281776416539,114.70626432279923L628.2388973966309,118.85444629201784L629.2496171516079,126.72577279117141L632.2817764165391,117.93074824834619L633.2924961715162,126.35074704737546L634.3032159264931,124.98481423418754L635.3139356814701,128.31781176419398L636.3246554364472,119.2159310748918L640.3675344563553,105.32154177698465L641.3782542113323,96.4344572915983L642.3889739663093,93.26766963432763L643.3996937212863,74.4792919863521L646.4318529862175,72.00470461749407L647.4425727411946,59.29150852404051L648.4532924961716,47.06764619461455L649.4640122511485,37.81554450176587L650.4747320061256,58.48943123922199L653.5068912710566,55.97112236953804L654.5176110260337,59.80563123254771L655.5283307810107,67.86278185675657L656.5390505359877,79.92731324553985L657.5497702909648,102.79901878673911L660.5819295558958,99.37845431035845L661.592649310873,88.15488786304607L662.60336906585,94.66725343964664L663.6140888208269,149.48081536241352L664.624808575804,136.18820867792957L667.656967840735,130.52102216336147L668.6676875957121,143.35596296039054L669.6784073506892,120.53299868127424L670.6891271056661,101.0926098211237L671.6998468606432,98.6088815289888L674.7320061255742,99.5393345600311L675.7427258805513,103.79280757092683L676.7534456355285,77.51166159218208L677.7641653905054,62.99819939207716L678.7748851454824,61.361943139339054L681.8070444104135,56.78925049590709L682.8177641653905,31.816836840963518L683.8284839203676,35.32066118461511L684.8392036753445,42.07911900753706L685.8499234303216,31.852656865736556L688.8820826952527,42.69047635076554L689.8928024502297,47.086671709502625L690.9035222052069,55.22640050500925L691.9142419601837,63.41298040558228L692.9249617151607,54.17581405178261L695.9571209800919,62.677833270858784L696.9678407350689,75.22385891997789L697.978560490046,69.20770603949804L698.9892802450229,79.21903112939609L700,75.51339379149978"></path><g transform="translate(0,520)" fill="none" font-size="10" font-family="sans-serif" text-anchor="middle"><g class="tick" opacity="1" transform="translate(113.18759571209802,0)"><line stroke="currentColor" y2="6"></line><text fill="currentColor" y="9" dy="0.71em">April</text></g><g class="tick" opacity="1" transform="translate(205.16309341500767,0)"><line stroke="currentColor" y2="6"></line><text fill="currentColor" y="9" dy="0.71em">July</text></g><g class="tick" opacity="1" transform="translate(298.1493108728944,0)"><line stroke="currentColor" y2="6"></line><text fill="currentColor" y="9" dy="0.71em">October</text></g><g class="tick" opacity="1" transform="translate(391.1776416539051,0)"><line stroke="currentColor" y2="6"></line><text fill="currentColor" y="9" dy="0.71em">2017</text></g><g class="tick" opacity="1" transform="translate(482.1003062787137,0)"><line stroke="currentColor" y2="6"></line><text fill="currentColor" y="9" dy="0.71em">April</text></g><g class="tick" opacity="1" transform="translate(574.0758039816233,0)"><line stroke="currentColor" y2="6"></line><text fill="currentColor" y="9" dy="0.71em">July</text></g><g class="tick" opacity="1" transform="translate(667.06202143951,0)"><line stroke="currentColor" y2="6"></line><text fill="currentColor" y="9" dy="0.71em">October</text></g></g><g transform="translate(40,0)" fill="none" font-size="10" font-family="sans-serif" text-anchor="end"><g class="tick" opacity="1" transform="translate(0,460.25023249634665)"><line stroke="currentColor" x2="-6"></line><text fill="currentColor" x="-9" dy="0.32em">40</text></g><g class="tick" opacity="1" transform="translate(0,393.8227049289227)"><line stroke="currentColor" x2="-6"></line><text fill="currentColor" x="-9" dy="0.32em">41</text></g><g class="tick" opacity="1" transform="translate(0,327.39517736149867)"><line stroke="currentColor" x2="-6"></line><text fill="currentColor" x="-9" dy="0.32em">42</text></g><g class="tick" opacity="1" transform="translate(0,260.9676497940747)"><line stroke="currentColor" x2="-6"></line><text fill="currentColor" x="-9" dy="0.32em">43</text></g><g class="tick" opacity="1" transform="translate(0,194.5401222266507)"><line stroke="currentColor" x2="-6"></line><text fill="currentColor" x="-9" dy="0.32em">44</text></g><g class="tick" opacity="1" transform="translate(0,128.11259465922666)"><line stroke="currentColor" x2="-6"></line><text fill="currentColor" x="-9" dy="0.32em">45</text></g><g class="tick" opacity="1" transform="translate(0,61.68506709180269)"><line stroke="currentColor" x2="-6"></line><text fill="currentColor" x="-9" dy="0.32em">46</text></g></g></svg>